<svg xmlns="http://www.w3.org/2000/svg" xmlns:xlink="http://www.w3.org/1999/xlink" x="0px" y="0px" viewBox="0 0 87 19" enable-background="new 0 0 512 512" style="display: block; width: 100%; height: auto; margin-top: 4%; overflow: hidden">
  <defs>
    <linearGradient id="main_gradient" gradientTransform="scale(1.4) rotate(45)">
      <stop offset="0" style="stop-color:#b21c0e" class="stop-1"/>
      <stop offset="0.33" style="stop-color:#cb0e40" class="stop-2"/>
      <stop offset="0.66" style="stop-color:#bc4f5e" class="stop-3"/>
      <stop offset="1" style="stop-color:#cb5382" class="stop-4"/>
    </linearGradient>
  </defs>
  <path id="TBf" fill="url(#main_gradient)" fill-rule="evenodd" stroke="none" d="M 56.651829 14.613564 C 57.213051 14.613564 57.49366 14.508336 57.49366 14.297878 C 57.49366 14.08742 57.318279 13.806812 56.967518 13.456047 L 56.441376 12.929904 L 56.020462 13.613892 C 55.634617 14.315419 55.494312 14.666179 55.599545 14.666179 C 55.669697 14.631102 56.020454 14.613564 56.651829 14.613564 Z M 58.914249 12.719446 C 58.914249 12.614218 58.756409 12.561604 58.44072 12.561604 C 58.230263 12.561604 58.098728 12.579142 58.046112 12.614218 C 57.9935 12.649294 57.967194 12.754522 57.967194 12.929904 C 57.967194 13.175439 57.98473 13.298204 58.019806 13.298204 C 58.089958 13.298204 58.256569 13.210515 58.519642 13.035132 C 58.782715 12.859751 58.914249 12.754522 58.914249 12.719446 Z M 54.389416 6.458335 C 54.599869 6.42326 54.862938 6.405722 55.178631 6.405722 C 55.318935 6.405722 55.590771 6.414491 55.994152 6.432029 C 56.39753 6.449566 56.739517 6.458335 57.02013 6.458335 C 58.738876 6.493412 59.703465 6.581101 59.913925 6.721408 C 60.019154 6.79156 60.098072 6.87925 60.150688 6.984479 C 60.2033 7.089708 60.2033 7.168629 60.150688 7.221244 C 60.098072 7.273858 60.001614 7.300166 59.861305 7.300166 C 59.650852 7.300166 59.545624 7.247552 59.545624 7.142323 C 59.545624 6.861712 58.7038 6.721408 57.02013 6.721408 C 56.318604 6.721408 55.48555 6.747714 54.52095 6.800328 C 53.556343 6.852943 52.723293 6.905558 52.021767 6.958173 C 51.320236 7.010787 50.916866 7.037093 50.811634 7.037093 L 48.286144 7.142323 C 48.215992 7.633392 48.16338 8.159531 48.128304 8.720754 L 48.075684 10.246571 L 50.706406 10.141342 C 52.635609 10.071189 53.687889 10.018575 53.86327 9.983499 C 54.599876 9.843193 54.96817 9.843193 54.96817 9.983499 C 54.96817 10.123804 53.582672 10.281646 50.811634 10.457028 C 49.619034 10.492105 48.689526 10.579794 48.023071 10.7201 L 47.970459 12.719446 C 47.935383 13.245593 47.917843 13.859421 47.917843 14.560949 C 47.917843 14.631103 47.935383 14.683716 47.970459 14.718793 C 48.005535 14.75387 48.049377 14.788945 48.101997 14.824021 C 48.15461 14.859098 48.224762 14.876637 48.31245 14.876637 C 48.400143 14.876637 48.514137 14.876637 48.654446 14.876637 C 48.79475 14.876637 48.926289 14.876637 49.049053 14.876637 C 49.171818 14.876637 49.338428 14.876637 49.548889 14.876637 C 49.75935 14.876637 49.952267 14.876637 50.127651 14.876637 C 52.33746 14.876637 53.758034 14.84156 54.389416 14.771407 C 54.705101 14.736331 54.906788 14.692486 54.994476 14.639872 C 55.082169 14.587257 55.196163 14.438184 55.336472 14.192649 C 55.371548 14.122496 55.520618 13.885735 55.783695 13.482355 C 56.046768 13.078976 56.178303 12.772062 56.178303 12.561604 C 56.178303 12.456374 56.160763 12.386222 56.125687 12.351146 C 56.020462 12.175764 55.994152 12.061768 56.046768 12.009152 C 56.09938 11.956537 56.195839 12.01792 56.336143 12.193302 C 56.336143 12.228379 56.35368 12.245916 56.38876 12.245916 C 56.529064 12.245916 56.914898 11.772392 57.546276 10.825329 C 57.756733 10.474565 57.914574 10.42195 58.019806 10.667486 C 58.019806 10.702562 57.791813 11.053322 57.335819 11.719772 L 56.651829 12.719446 L 57.02013 13.192976 C 57.265667 13.508663 57.405968 13.666506 57.441044 13.666506 C 57.441044 13.666506 57.405968 13.596354 57.335819 13.456047 L 57.177979 13.087748 C 57.177979 13.087748 57.230591 13.140361 57.335819 13.24559 C 57.47612 13.035131 57.546276 12.87729 57.546276 12.77206 C 57.546276 12.210838 57.616428 11.912693 57.756733 11.877617 L 57.914574 12.03546 C 57.98473 12.175766 58.107494 12.245916 58.282875 12.245916 C 58.914253 12.245916 59.229935 12.386221 59.229935 12.666832 C 59.229935 12.98252 58.931793 13.245589 58.335495 13.456047 L 57.809345 13.666506 L 57.861961 14.297878 C 57.932117 14.613565 57.914577 14.82402 57.809345 14.929251 C 57.739193 14.999403 57.704121 15.350163 57.704121 15.981538 C 57.704121 16.647989 57.669044 16.981211 57.598892 16.981211 C 57.528736 16.981211 57.49366 16.630451 57.49366 15.928924 L 57.49366 14.824021 L 56.704445 14.824021 C 56.073071 14.824021 55.652161 14.867867 55.4417 14.955557 C 55.231239 15.043249 55.038322 15.262473 54.862946 15.613237 C 54.792786 15.718467 54.731403 15.823694 54.678791 15.928924 C 54.626179 16.034153 54.564793 16.121841 54.494644 16.191996 L 54.442028 16.349838 C 54.442028 16.419991 54.406952 16.419991 54.336796 16.349838 C 54.30172 16.314762 54.31926 16.200766 54.389416 16.007845 C 54.459568 15.814924 54.52972 15.630776 54.599869 15.455394 L 54.75771 15.139708 C 54.75771 15.104631 54.389416 15.087093 53.652813 15.087093 C 51.022076 15.087093 49.005215 15.157246 47.602158 15.297551 C 46.900631 15.367703 46.497257 15.40278 46.392025 15.40278 C 45.936035 15.40278 45.708038 15.31509 45.708038 15.139708 C 45.708038 14.999402 45.857117 14.894175 46.155266 14.824021 C 46.453415 14.753868 46.637562 14.753868 46.707714 14.824021 C 46.812943 14.929251 47.005859 14.981865 47.286469 14.981865 L 47.760002 14.981865 L 47.760002 10.7201 L 47.128628 10.667486 C 46.707714 10.667486 46.497253 10.597334 46.497253 10.457028 C 46.497253 10.316723 46.707714 10.246571 47.128628 10.246571 C 47.444317 10.211493 47.628464 10.176418 47.681076 10.141342 C 47.733696 10.106265 47.777542 9.9835 47.812618 9.773042 C 47.847691 9.562583 47.865231 9.229362 47.865231 8.773369 C 47.865231 8.282298 47.830154 8.019229 47.760002 7.984152 C 47.65477 7.878923 47.637234 7.615854 47.70739 7.194937 L 45.708038 7.300166 C 45.462509 7.300166 45.190666 7.308935 44.892517 7.326472 C 44.594368 7.344011 44.410217 7.35278 44.340065 7.35278 C 43.919151 7.35278 43.708694 7.300166 43.708694 7.194937 C 43.708694 7.124784 43.743771 7.089707 43.813923 7.089707 C 44.05946 7.019555 46.321854 6.89679 50.601177 6.721408 C 53.091606 6.581101 54.354336 6.493412 54.389416 6.458335 Z M 45.181896 6.879251 C 44.690826 6.809097 44.287453 6.774022 43.971767 6.774022 C 43.796383 6.774022 43.708694 6.738946 43.708694 6.668793 C 43.778847 6.563564 43.998074 6.546026 44.366375 6.616179 C 44.734676 6.686332 45.006516 6.774021 45.181896 6.879251 Z M 64.701836 10.036113 C 64.736908 10.001037 64.80706 10.018575 64.912285 10.088727 C 64.982445 10.15888 65.017517 10.237802 65.017517 10.325492 C 65.017517 10.413183 64.982445 10.492105 64.912285 10.562257 C 64.842133 10.63241 64.77198 10.649948 64.701836 10.614871 C 64.631676 10.544719 64.596603 10.43949 64.596603 10.299186 C 64.596603 10.158879 64.631676 10.07119 64.701836 10.036113 Z M 60.49268 11.825003 C 60.562832 11.64962 60.545296 11.614544 60.440067 11.719772 C 60.404991 11.754849 60.352379 11.807464 60.282219 11.877617 C 60.21207 11.982845 60.19453 12.03546 60.229607 12.03546 C 60.369915 11.965307 60.457603 11.895155 60.49268 11.825003 Z M 62.018497 10.825329 C 62.193882 10.649946 62.316647 10.70256 62.386799 10.983171 L 62.386799 11.298859 C 62.351723 11.509317 62.474487 11.702234 62.7551 11.877617 C 63.035713 12.052999 63.176014 12.158226 63.176014 12.193302 C 63.176014 12.298532 63.22863 12.403759 63.333855 12.508989 C 63.404007 12.614218 63.465397 12.658063 63.518009 12.640525 C 63.570621 12.622987 63.66708 12.473914 63.807384 12.193302 C 64.017845 11.807462 64.175682 11.614544 64.280914 11.614544 C 64.386147 11.614544 64.438759 11.842537 64.438759 12.298532 L 64.438759 12.719446 C 64.368607 13.456051 64.315994 13.824348 64.280914 13.824348 C 64.210762 13.824348 64.15815 13.613894 64.12307 13.192976 L 64.070457 12.561604 L 63.754772 13.140362 C 63.368931 13.876966 63.140938 13.84189 63.070786 13.035132 C 63.070786 12.719445 62.948021 12.438837 62.702488 12.193302 C 62.421875 11.982843 62.264034 11.877617 62.228954 11.877617 C 62.158802 11.877617 62.018497 12.052996 61.808037 12.403761 C 61.211739 13.315747 60.668064 13.771734 60.176994 13.771734 C 59.896381 13.771734 59.685928 13.613893 59.545624 13.298204 C 59.440392 13.157899 59.387779 12.982519 59.387779 12.77206 C 59.387779 12.421297 59.51931 12.070538 59.782387 11.719772 C 60.04546 11.369009 60.299759 11.19363 60.545296 11.19363 C 60.615444 11.19363 60.685596 11.228705 60.755753 11.298859 C 60.931133 11.474241 60.966209 11.675927 60.860981 11.903923 C 60.755753 12.131921 60.527756 12.316069 60.176994 12.456375 C 59.966534 12.526527 59.861305 12.684369 59.861305 12.929904 C 59.861305 13.385897 60.141918 13.420973 60.70314 13.035132 C 60.948669 12.894827 61.202976 12.61422 61.466049 12.193302 C 61.729118 11.772386 61.860657 11.474241 61.860657 11.298859 C 61.860657 11.0884 61.913269 10.930558 62.018497 10.825329 Z M 74.961639 12.245916 C 74.996712 12.175764 75.014252 12.140688 75.014252 12.140688 L 74.698563 12.245916 C 74.593338 12.316071 74.593338 12.351146 74.698563 12.351146 C 74.803787 12.351146 74.891487 12.316071 74.961639 12.245916 Z M 66.069801 11.719772 C 66.139954 11.789927 66.192566 11.789927 66.227654 11.719772 C 66.262726 11.684696 66.271492 11.65839 66.25396 11.640852 C 66.23642 11.623314 66.192574 11.614544 66.122414 11.614544 C 66.017189 11.614544 65.999649 11.64962 66.069801 11.719772 Z M 66.069801 11.141016 L 66.332878 11.035787 C 66.40303 11.00071 66.508255 11.053324 66.648567 11.19363 C 66.788864 11.333935 66.859016 11.439163 66.859016 11.509315 C 66.859016 11.719774 66.639793 11.877616 66.20134 11.982845 C 65.762886 12.088075 65.526123 12.21084 65.491051 12.351146 C 65.491051 12.386222 65.482277 12.421298 65.464745 12.456375 C 65.447205 12.491451 65.438431 12.526527 65.438431 12.561604 C 65.438431 12.701909 65.543663 12.77206 65.75412 12.77206 C 66.315338 12.77206 66.946709 12.386227 67.648232 11.614544 C 67.893768 11.298857 68.069153 11.141016 68.174385 11.141016 C 68.27961 11.141016 68.29715 11.386547 68.226997 11.877617 L 68.174385 12.614218 L 68.753136 11.825003 C 69.138977 11.298856 69.366974 11.035787 69.437126 11.035787 C 69.682663 11.035787 69.805428 11.369007 69.805428 12.03546 L 69.805428 12.719446 C 70.226341 12.403759 70.524483 12.105614 70.699867 11.825003 C 71.015556 11.15855 71.40139 10.930556 71.857384 11.141016 C 72.138 11.246244 72.208153 11.421623 72.067841 11.667158 C 71.997688 11.807465 71.91877 11.877617 71.831078 11.877617 C 71.743393 11.877617 71.699547 11.789927 71.699547 11.614544 C 71.699547 11.579468 71.699547 11.544392 71.699547 11.509315 C 71.699547 11.439163 71.681999 11.421625 71.646927 11.456701 C 71.576775 11.526854 71.524162 11.579468 71.489082 11.614544 C 71.313698 11.75485 71.164627 11.930229 71.041862 12.140688 C 70.91909 12.351147 70.927864 12.561602 71.068169 12.77206 C 71.208473 12.87729 71.45401 12.929904 71.804771 12.929904 C 72.646606 12.929904 73.155205 12.772062 73.330589 12.456375 C 73.576126 12.140687 74.067184 11.895155 74.803787 11.719772 C 75.084404 11.684696 75.294861 11.711004 75.435165 11.798695 C 75.57547 11.886385 75.628082 12.000382 75.593002 12.140688 C 75.55793 12.280994 75.417625 12.403759 75.172089 12.508989 C 74.961639 12.614218 74.856407 12.68437 74.856407 12.719446 C 74.856407 12.789599 75.084404 12.824675 75.54039 12.824675 C 76.382225 12.824675 77.048668 12.807137 77.539734 12.77206 C 78.065887 12.736984 78.96032 12.719446 80.223068 12.719446 C 83.555336 12.719446 85.221436 12.789598 85.221436 12.929904 C 85.221436 13.035133 84.134087 13.087748 81.959351 13.087748 C 79.854759 13.087748 78.17112 13.122824 76.908371 13.192976 C 76.592682 13.228052 76.154228 13.24559 75.593002 13.24559 C 74.435486 13.24559 73.804115 13.140363 73.698891 12.929904 C 73.628738 12.824675 73.453354 12.859751 73.172745 13.035132 C 72.857056 13.245591 72.453682 13.350819 71.962616 13.350819 C 71.155853 13.350819 70.699867 13.140364 70.594643 12.719446 C 70.55957 12.544065 70.454338 12.561602 70.278954 12.77206 C 70.068497 13.017595 69.87558 13.087748 69.700195 12.982518 C 69.524818 12.877289 69.402054 12.631758 69.331894 12.245916 L 69.279282 11.825003 L 68.753136 12.561604 C 68.437454 13.052673 68.174385 13.298204 67.963921 13.298204 C 67.823616 13.298204 67.735924 13.105288 67.700851 12.719446 L 67.595619 12.193302 C 66.999321 12.894831 66.43811 13.24559 65.911964 13.24559 C 65.771652 13.24559 65.666428 13.228052 65.596275 13.192976 C 65.070129 12.947441 64.877213 12.596682 65.017517 12.140688 C 65.087669 11.965306 65.23674 11.76362 65.464745 11.535624 C 65.692734 11.307626 65.894424 11.176092 66.069801 11.141016 Z"/>
  <path id="Shape" fill="url(#main_gradient)" fill-rule="evenodd" stroke="none" d="M 33.396275 12.87729 C 33.115665 12.87729 32.975361 12.596683 32.975361 12.03546 C 32.975361 11.649618 32.905209 11.38655 32.764904 11.246244 C 32.554447 11.00071 32.431679 11.018247 32.396603 11.298859 C 32.361526 11.614546 32.098457 11.807464 31.607386 11.877617 C 31.18647 11.947769 30.958477 11.982845 30.923401 11.982845 C 30.818171 12.017921 30.765556 12.842205 30.765556 14.455721 C 30.765556 16.174465 30.712944 17.033825 30.607714 17.033825 L 30.555099 16.981211 C 30.520023 16.946135 30.467411 16.121851 30.397257 14.508335 L 30.292028 12.088074 L 30.08157 12.03546 C 29.800961 12.000383 29.730806 11.912693 29.871111 11.772388 L 30.08157 11.667158 L 30.292028 11.667158 L 30.344643 9.352126 C 30.414795 6.546012 30.730478 5.142976 31.291702 5.142976 C 31.432007 5.142976 31.589849 5.248203 31.76523 5.458662 C 32.080917 5.809426 32.238758 6.493407 32.238758 7.510623 C 32.238758 8.562916 32.168606 9.089054 32.028301 9.089054 C 31.958149 9.089054 31.940611 8.790909 31.975687 8.194611 L 31.975687 7.668467 C 31.975687 6.335562 31.800308 5.66912 31.449543 5.66912 C 31.309237 5.66912 31.168934 6.002341 31.028627 6.668793 C 30.853247 7.545704 30.765556 8.808436 30.765556 10.457028 L 30.765556 11.56193 L 31.291702 11.509315 C 31.642466 11.439163 31.852921 11.404087 31.923075 11.404087 C 31.993225 11.369011 32.072147 11.237476 32.15984 11.00948 C 32.247532 10.781483 32.291374 10.614872 32.291374 10.509643 C 32.291374 10.299184 32.361526 10.246571 32.501831 10.3518 C 32.607063 10.386876 32.659676 10.457027 32.659676 10.562257 C 32.659676 10.702563 32.729828 10.842867 32.870132 10.983171 C 33.150745 11.29886 33.343662 11.737309 33.448891 12.298532 L 33.922421 11.719772 C 34.343338 11.228703 34.623943 11.070862 34.764248 11.246244 C 34.799328 11.316397 34.808098 11.579466 34.790554 12.03546 C 34.773018 12.491453 34.729172 12.719446 34.659023 12.719446 C 34.483639 12.719446 34.395947 12.526529 34.395947 12.140688 L 34.395947 11.772388 L 33.922421 12.298532 C 33.606731 12.684372 33.431355 12.87729 33.396275 12.87729 Z M 41.393661 12.03546 L 41.446274 12.03546 C 41.586582 12.03546 41.849651 11.903925 42.235489 11.640852 C 42.621334 11.377778 42.814251 11.211168 42.814251 11.141016 L 42.761635 11.141016 C 42.656406 11.141016 42.340725 11.263781 41.814575 11.509315 C 41.393658 11.719774 41.253357 11.895154 41.393661 12.03546 Z M 36.658367 11.035787 C 36.833748 11.035787 36.92144 11.00071 36.92144 10.930557 C 36.92144 10.860405 36.868824 10.825329 36.763596 10.825329 C 36.588215 10.825329 36.500523 10.860405 36.500523 10.930557 C 36.500523 11.00071 36.553139 11.035787 36.658367 11.035787 Z M 39.341702 11.456701 C 39.306622 11.491777 39.218933 11.623312 39.078629 11.851309 C 38.938324 12.079306 38.789249 12.289762 38.631405 12.482681 C 38.473564 12.675602 38.377106 12.77206 38.342026 12.77206 C 38.236797 12.807137 38.157879 12.763292 38.105263 12.640525 C 38.052647 12.517757 38.04388 12.351147 38.078957 12.140688 L 38.131569 11.877617 C 37.500195 12.193304 36.991592 12.351146 36.605755 12.351146 C 36.184837 12.351146 35.921764 12.175766 35.81654 11.825003 C 35.746384 11.684696 35.606079 11.474241 35.395622 11.19363 C 35.465775 11.158553 35.649921 11.035788 35.948074 10.825329 C 36.246223 10.61487 36.482986 10.509643 36.658367 10.509643 C 36.798672 10.509643 36.956516 10.562257 37.131897 10.667486 C 37.307281 10.772715 37.39497 10.877942 37.39497 10.983171 C 37.39497 11.088401 37.166973 11.202398 36.710979 11.325165 C 36.25499 11.447933 36.026997 11.579468 36.026997 11.719772 C 36.026997 11.789927 36.044533 11.842541 36.079609 11.877617 C 36.184841 12.052999 36.342682 12.140688 36.553139 12.140688 C 37.044209 12.140688 37.535271 11.895157 38.02634 11.404087 C 38.34203 11.088399 38.517406 10.930557 38.552486 10.930557 C 38.622639 10.930557 38.657715 11.070862 38.657715 11.351473 L 38.657715 11.719772 C 38.9734 11.123474 39.183857 10.807791 39.289085 10.772715 C 39.359241 10.772715 39.411854 10.80779 39.44693 10.877943 C 39.587234 11.193631 39.674923 11.404087 39.709999 11.509315 C 39.850307 11.965309 40.0783 12.193302 40.39399 12.193302 C 40.674599 12.193302 40.867516 12.017923 40.972748 11.667158 C 41.077976 11.281319 41.586575 10.983173 42.498566 10.772715 C 42.744099 10.737638 42.884399 10.649948 42.919479 10.509643 C 42.954556 10.369337 42.972092 9.930888 42.972092 9.194283 C 42.972092 7.65092 43.042244 6.703871 43.182549 6.353106 C 43.217625 6.212801 43.322853 6.177725 43.498238 6.247878 C 43.603466 6.282955 43.656078 6.5811 43.656078 7.142323 C 43.656078 7.352781 43.603466 7.826305 43.498238 8.56291 C 43.498238 8.843522 43.428085 10.158869 43.287781 12.508989 C 43.147476 14.85911 43.042244 16.034153 42.972092 16.034153 C 42.901939 16.034153 42.866863 15.244945 42.866863 13.666506 L 42.866863 11.509315 C 42.305641 12.070539 41.884731 12.351146 41.604118 12.351146 C 41.49889 12.351146 41.411198 12.333608 41.341049 12.298532 C 41.165665 12.263454 41.007824 12.280993 40.867516 12.351146 C 40.657059 12.421299 40.516758 12.456375 40.446602 12.456375 C 40.09584 12.456375 39.727539 12.123154 39.341702 11.456701 Z M 20.926668 10.614871 C 20.610979 10.614871 20.260221 10.597334 19.87438 10.562257 C 19.488541 10.527181 19.164087 10.500874 18.901014 10.483335 C 18.637941 10.465797 18.471331 10.457028 18.401178 10.457028 L 17.82242 10.404414 L 17.769806 11.246244 C 17.769806 11.421626 17.761038 11.667157 17.7435 11.982845 C 17.72596 12.298532 17.717192 12.526526 17.717192 12.666832 C 17.717192 13.157902 17.752266 13.648965 17.82242 14.140035 L 18.874708 13.771734 C 22.557732 12.438829 24.486908 11.614546 24.662289 11.298859 C 24.662289 11.263783 24.671059 11.246244 24.688597 11.246244 C 24.706135 11.246244 24.714903 11.228706 24.714903 11.19363 C 24.714903 10.913018 23.452173 10.7201 20.926668 10.614871 Z M 17.454121 9.983499 C 17.454121 9.843193 17.436583 9.773042 17.401505 9.773042 C 17.366428 9.773042 17.208588 9.808117 16.927975 9.87827 C 16.8929 9.87827 16.857824 9.895808 16.822746 9.930884 L 16.559675 10.036113 L 16.717518 10.088727 C 16.752596 10.088727 16.840284 10.097496 16.980591 10.115035 C 17.120895 10.132573 17.208586 10.141342 17.243662 10.141342 C 17.383966 10.141342 17.454121 10.088728 17.454121 9.983499 Z M 14.402486 7.35278 L 14.402486 6.879251 L 16.191374 6.879251 C 17.769814 6.879251 19.313154 6.96694 20.82144 7.142323 C 22.785719 7.387857 23.820457 7.545699 23.925688 7.615851 C 24.101068 7.721081 24.188761 7.80877 24.188761 7.878923 C 24.188761 8.159535 22.926027 8.562908 20.400526 9.089054 C 19.593767 9.264437 18.857172 9.439816 18.190722 9.615198 C 17.945187 9.685351 17.82242 9.825654 17.82242 10.036113 C 17.82242 10.176419 18.576551 10.281647 20.084839 10.3518 C 23.066334 10.527182 24.662289 10.790251 24.872747 11.141016 C 24.907822 11.176092 24.92536 11.228705 24.92536 11.298859 C 24.92536 11.404087 24.872747 11.509315 24.767517 11.614544 C 24.346601 12.070538 22.347275 12.982512 18.76948 14.350492 C 18.067949 14.631104 17.717192 14.859097 17.717192 15.034479 C 17.717192 15.174785 17.682116 15.315088 17.611963 15.455394 C 17.576887 15.385242 17.559349 15.315089 17.559349 15.244936 L 17.506733 14.824021 C 15.507378 15.490474 14.490177 15.823694 14.4551 15.823694 C 14.420024 15.823694 14.402486 15.771081 14.402486 15.665852 C 14.402486 15.490469 14.472638 15.385242 14.612944 15.350165 C 16.507071 14.648637 17.471659 14.227726 17.506733 14.08742 L 17.506733 12.140688 L 17.454121 10.457028 C 16.647362 10.211493 16.243988 10.053652 16.243988 9.983499 C 16.243988 9.878269 16.612286 9.702889 17.348892 9.457355 C 17.419044 9.457355 17.454121 9.194285 17.454121 8.668139 C 17.454121 8.07184 17.506733 7.773695 17.611963 7.773695 C 17.611963 7.738619 17.647038 7.756156 17.717192 7.826309 C 17.82242 7.931539 17.875034 8.229684 17.875034 8.720754 L 17.875034 9.299512 C 18.190722 9.299512 19.23423 9.097825 21.00559 8.694447 C 22.776951 8.291068 23.662617 8.019229 23.662617 7.878923 C 23.662617 7.738618 22.5928 7.598314 20.453138 7.458009 C 19.611305 7.387856 18.401186 7.35278 16.822746 7.35278 Z M 25.714577 11.614544 C 25.995188 11.614544 26.328409 11.421627 26.714249 11.035787 L 26.345947 11.035787 C 26.03026 11.035787 25.819805 11.105938 25.714577 11.246244 C 25.504118 11.491779 25.504118 11.614544 25.714577 11.614544 Z M 28.871439 11.141016 C 28.871439 11.105939 28.915283 10.913021 29.002975 10.562257 C 29.090668 10.211493 29.178356 9.878271 29.266047 9.562584 C 29.353739 9.246896 29.415121 9.089054 29.450197 9.089054 C 29.555428 9.089054 29.643116 9.141668 29.71327 9.246898 C 29.783422 9.31705 29.818499 9.40474 29.818499 9.509969 C 29.818499 9.580122 29.809729 9.68535 29.792191 9.825656 C 29.774652 9.965961 29.748346 10.185185 29.71327 10.483335 C 29.678192 10.781486 29.643116 11.088399 29.60804 11.404087 C 29.432659 13.157908 29.327431 14.473255 29.292353 15.350165 C 29.222202 16.683069 29.15205 17.349512 29.081896 17.349512 L 29.029282 17.349512 L 29.029282 17.033825 C 29.029282 13.876947 29.081896 12.088076 29.187126 11.667158 C 29.222202 11.597006 29.222202 11.56193 29.187126 11.56193 L 29.029282 11.719772 C 28.924053 11.860079 28.783749 11.930231 28.608368 11.930231 C 28.468061 11.930231 28.327759 11.842541 28.187452 11.667158 C 28.047148 11.491776 27.976995 11.316398 27.976995 11.141016 L 27.976995 10.877943 L 27.608694 10.930557 C 27.328083 10.930557 27.170242 10.983171 27.135166 11.088401 C 26.854555 11.579471 26.486256 11.877616 26.030264 11.982845 C 25.714577 12.052998 25.469044 12.009153 25.293661 11.851309 C 25.11828 11.693466 25.065666 11.491779 25.135818 11.246244 C 25.170897 11.035786 25.153358 10.895482 25.083204 10.825329 C 24.872747 10.649946 24.942898 10.492105 25.293661 10.3518 C 25.433968 10.281647 25.626884 10.246571 25.872419 10.246571 C 26.047802 10.246571 26.310873 10.299185 26.661634 10.404414 C 27.012402 10.509644 27.293007 10.562257 27.503464 10.562257 L 27.661308 10.562257 C 28.04715 10.527181 28.275143 10.544719 28.345297 10.614871 C 28.415447 10.685024 28.432985 10.842866 28.397911 11.088401 C 28.327757 11.369012 28.345293 11.526854 28.450523 11.56193 C 28.555754 11.632083 28.678518 11.526855 28.818825 11.246244 C 28.853901 11.211168 28.871439 11.176092 28.871439 11.141016 Z M 34.86948 9.562584 C 34.939632 9.492432 35.097473 9.509969 35.343006 9.615198 C 35.518391 9.685351 35.518391 9.755503 35.343006 9.825656 C 35.167625 9.930885 35.079937 10.001037 35.079937 10.036113 C 35.079937 10.07119 35.062397 10.088727 35.027321 10.088727 C 34.992245 10.088727 34.957169 10.07119 34.922092 10.036113 C 34.85194 10.001037 34.816864 9.930885 34.816864 9.825656 C 34.816864 9.720427 34.834404 9.632737 34.86948 9.562584 Z"/>
  <path id="path1" fill="url(#main_gradient)" fill-rule="evenodd" stroke="none" d="M 3.87961 2.143955 C 4.090068 1.547657 4.581131 1.249512 5.352812 1.249512 C 5.598348 1.249512 5.773727 1.284588 5.878956 1.35474 C 6.089415 1.45997 6.247257 1.644117 6.352485 1.907192 C 6.457715 2.170265 6.440177 2.354414 6.299871 2.459642 C 5.914031 2.670101 5.563272 2.740253 5.247584 2.670101 C 5.107278 2.599947 5.08974 2.547335 5.19497 2.512257 C 5.230046 2.512257 5.317736 2.494719 5.458041 2.459642 C 5.878958 2.354414 6.089414 2.214109 6.089414 2.038727 C 6.089414 1.933498 6.0368 1.854578 5.931571 1.801964 C 5.826342 1.749348 5.686038 1.73181 5.510655 1.749348 C 5.335274 1.766888 5.159894 1.810732 4.984512 1.880884 C 4.528518 2.126419 4.300525 2.319338 4.300525 2.459642 C 4.300525 2.705177 4.703898 2.827944 5.510655 2.827944 C 5.721114 2.827944 6.071873 2.757792 6.562943 2.617485 C 7.054013 2.47718 7.352159 2.354414 7.457387 2.249186 C 7.667846 2.073803 7.773074 2.038727 7.773074 2.143955 C 7.773074 2.389492 7.422315 2.635023 6.720787 2.880558 C 6.299869 3.091017 5.843883 3.196244 5.352812 3.196244 C 5.212507 3.196244 4.966976 3.161168 4.616211 3.091015 L 4.300525 3.038401 C 4.300525 3.108553 4.318063 3.178706 4.353139 3.248859 C 4.388216 3.42424 4.370677 3.51193 4.300525 3.51193 C 4.195296 3.441777 4.090068 3.301474 3.984839 3.091015 C 3.809457 2.740252 3.774381 2.424568 3.87961 2.143955 Z M 8.036146 2.564873 C 8.071222 2.424566 8.106298 2.38949 8.141375 2.459642 C 8.176451 2.494719 8.193989 2.547333 8.193989 2.617485 C 8.193989 2.933174 8.018609 3.231318 7.667845 3.51193 C 7.176775 3.862695 6.527871 4.108226 5.721113 4.248532 C 5.440502 4.283607 5.159894 4.371297 4.879283 4.511603 C 4.703901 4.651909 4.616211 4.616833 4.616211 4.406374 C 4.616211 4.16084 5.002046 3.967922 5.773728 3.827616 C 6.264797 3.757463 6.738322 3.590853 7.194316 3.32778 C 7.650309 3.064707 7.930917 2.810406 8.036146 2.564873 Z M 3.40608 3.459316 C 3.581463 3.248857 3.704228 3.213782 3.774381 3.354088 C 3.809458 3.389163 3.800689 3.476852 3.748074 3.617159 C 3.695459 3.757464 3.634076 3.906538 3.563924 4.064382 C 3.493771 4.222225 3.458695 4.336222 3.458695 4.406374 C 3.493771 4.65191 4.212827 4.809752 5.615885 4.879904 C 5.75619 4.879904 5.93157 4.888673 6.142028 4.906211 C 6.352487 4.92375 6.519097 4.941288 6.641865 4.958826 C 6.764632 4.976363 6.843553 4.985132 6.878629 4.985132 C 7.089088 5.055285 7.24693 5.204359 7.352159 5.432355 C 7.457388 5.660352 7.43985 5.809424 7.299545 5.879577 C 6.422634 6.756488 5.545736 7.194937 4.668826 7.194937 C 4.002373 7.194937 3.423621 6.633722 2.932551 5.511277 C 2.722093 4.914977 2.704555 4.616832 2.879937 4.616832 C 3.055319 4.616832 3.178085 4.862364 3.248238 5.353434 C 3.283314 5.528815 3.379773 5.730502 3.537617 5.958499 C 3.69546 6.186495 3.774381 6.31803 3.774381 6.353106 C 3.949763 6.633718 4.282984 6.774022 4.774055 6.774022 C 5.265124 6.774022 5.791263 6.61618 6.352485 6.300493 C 7.299549 5.809422 7.562618 5.476201 7.141702 5.300818 C 7.071549 5.265743 6.580486 5.248205 5.668499 5.248205 L 5.089741 5.248205 C 4.002371 5.248205 3.353467 4.967597 3.143008 4.406374 C 3.03778 4.125763 3.125469 3.810081 3.40608 3.459316 Z M 6.931244 7.142323 C 7.001397 7.142323 7.168007 7.168629 7.43108 7.221244 C 7.694154 7.273858 7.878303 7.300166 7.983531 7.300166 L 8.246603 7.247551 L 7.825688 7.142323 L 7.930917 7.089707 C 7.965994 7.089707 8.044914 7.080939 8.167682 7.063401 C 8.290449 7.045862 8.386908 7.037093 8.457061 7.037093 C 8.737672 7.037093 8.877976 7.072169 8.877976 7.142323 C 8.877976 7.247552 8.737672 7.361548 8.457061 7.484316 C 8.176449 7.607083 7.930918 7.668467 7.720459 7.668467 L 7.615231 7.668467 C 7.545078 7.633389 7.422313 7.598314 7.24693 7.563237 C 7.071548 7.528161 6.922475 7.493085 6.799708 7.458009 C 6.67694 7.422933 6.615558 7.35278 6.615558 7.247551 C 6.615558 7.212475 6.554175 7.116016 6.431407 6.958173 C 6.30864 6.800328 6.352485 6.70387 6.562943 6.668793 C 6.808478 6.493411 7.097854 6.212804 7.43108 5.826963 C 7.764307 5.441122 7.930917 5.12544 7.930917 4.879904 C 7.930917 4.844829 7.948455 4.792214 7.983531 4.722061 C 8.018608 4.651909 8.053684 4.581756 8.08876 4.511603 L 8.141375 4.406374 C 8.176451 4.441451 8.150145 4.651906 8.062453 5.037747 C 7.974762 5.423588 7.895841 5.686658 7.825688 5.826963 C 7.545077 6.388186 7.26447 6.756483 6.983858 6.931865 C 6.738323 7.07217 6.720785 7.142323 6.931244 7.142323 Z M 10.929937 12.666832 C 10.929937 12.561603 10.772096 12.701906 10.456408 13.087748 C 10.52656 13.087748 10.623018 13.026364 10.745787 12.903597 C 10.868553 12.780829 10.929937 12.701908 10.929937 12.666832 Z M 6.878629 8.247225 C 6.843553 8.247225 6.764632 8.212149 6.641865 8.141995 C 6.519097 8.071843 6.396331 8.019229 6.273564 7.984152 C 6.150796 7.949076 6.071876 7.931538 6.036799 7.931538 L 5.931571 9.87827 L 5.878956 11.088401 L 6.089414 11.088401 C 6.12449 11.088401 6.203412 11.079632 6.326179 11.062094 C 6.448946 11.044556 6.545405 11.035787 6.615558 11.035787 L 6.878629 11.035787 L 6.878629 10.299186 C 6.948782 9.457351 7.018934 8.843523 7.089087 8.457682 C 7.124163 8.352452 7.054011 8.282301 6.878629 8.247225 Z M 5.773728 16.455067 L 5.510655 16.455067 L 5.510655 11.351473 L 5.300198 11.351473 C 5.265121 11.351473 5.212508 11.351473 5.142355 11.351473 L 4.984512 11.404087 C 4.914359 11.439163 4.896821 11.509315 4.931898 11.614544 C 5.212509 12.316072 5.300199 12.719446 5.19497 12.824675 C 5.159893 12.859752 5.080972 12.850983 4.958205 12.798368 C 4.835437 12.745753 4.774055 12.701908 4.774055 12.666832 C 4.668825 12.59668 4.475908 12.456375 4.195296 12.245916 C 3.914685 12.035459 3.686691 11.860079 3.511309 11.719772 C 3.335927 11.579468 3.2307 11.491777 3.195623 11.456701 C 3.160547 11.421625 3.064088 11.369011 2.906244 11.298859 C 2.7484 11.228705 2.616865 11.18486 2.511636 11.167322 C 2.406407 11.149784 2.336255 11.158553 2.301178 11.19363 C 2.301178 11.369012 2.616862 11.772385 3.248238 12.403761 C 3.493772 12.684372 4.019911 12.964979 4.826669 13.24559 C 5.177433 13.35082 5.335275 13.438509 5.300198 13.508662 C 5.300198 13.508662 5.247584 13.508662 5.142355 13.508662 C 4.651285 13.403433 4.160223 13.210516 3.669152 12.929904 C 3.248235 12.649292 2.792249 12.193306 2.301178 11.56193 C 2.055644 11.246243 1.845188 11.035787 1.669806 10.930557 C 1.564577 10.895481 1.511963 10.73764 1.511963 10.457028 L 1.511963 10.141342 C 1.722422 10.421953 2.020567 10.614871 2.406407 10.7201 C 3.704235 11.141018 4.528519 11.526852 4.879283 11.877617 C 4.738977 11.597006 4.633749 11.421625 4.563597 11.351473 C 4.388215 11.17609 4.300525 11.035787 4.300525 10.930557 L 4.510983 10.930557 C 5.107282 11.035787 5.422965 11.070862 5.458041 11.035787 C 5.528194 10.965633 5.56327 10.351805 5.56327 9.194283 L 5.56327 7.35278 C 5.633423 7.212475 5.773726 7.24755 5.984185 7.458009 C 6.264797 7.738621 6.545403 7.896461 6.826015 7.931538 C 7.001397 7.966615 7.036473 7.966615 6.931244 7.931538 C 6.896167 7.896461 6.808478 7.843847 6.668172 7.773695 C 6.177102 7.52816 6.089412 7.440471 6.4051 7.510623 C 6.650635 7.5457 6.966318 7.686004 7.352159 7.931538 C 7.738 8.177073 7.930917 8.352452 7.930917 8.457682 C 7.930917 8.527835 7.825689 8.510297 7.615231 8.405067 C 7.580154 8.405067 7.545078 8.536602 7.510002 8.799675 C 7.474926 9.062748 7.431081 9.378431 7.378466 9.746734 C 7.325851 10.115037 7.299545 10.404412 7.299545 10.614871 C 7.299545 10.685024 7.308314 10.763945 7.325851 10.851636 C 7.34339 10.939327 7.352159 11.00071 7.352159 11.035787 C 7.352159 11.070862 7.317083 11.447928 7.24693 12.166995 C 7.176777 12.886063 7.141702 13.385894 7.141702 13.666506 C 7.141702 13.876965 7.15924 13.982191 7.194316 13.982191 C 7.229393 13.982191 7.343389 13.780505 7.53631 13.377127 C 7.729229 12.973747 7.825688 12.754522 7.825688 12.719446 C 7.825688 12.68437 7.887071 12.596681 8.009838 12.456375 C 8.132607 12.316069 8.211527 12.245916 8.246603 12.245916 C 8.28168 12.245916 8.343062 12.307301 8.430754 12.430067 C 8.518445 12.552835 8.562289 12.649294 8.562289 12.719446 C 8.562289 13.070211 8.667518 13.280666 8.877976 13.350819 C 8.948129 13.420972 9.10597 13.456047 9.351505 13.456047 C 9.59704 13.456047 9.754882 13.420972 9.825034 13.350819 C 9.895187 13.315742 9.930264 13.228052 9.930264 13.087748 C 9.930264 12.947441 10.061798 12.754524 10.324871 12.508989 C 10.587945 12.263454 10.824707 12.21084 11.035165 12.351146 C 11.17547 12.421299 11.245623 12.49145 11.245623 12.561604 C 11.315775 12.736986 11.157934 12.947441 10.772093 13.192976 L 10.561636 13.403433 C 10.561636 13.508663 11.070237 13.561276 12.087453 13.561276 C 12.648676 13.561276 13.139738 13.5262 13.560656 13.456047 C 14.086802 13.350819 14.349871 13.350819 14.349871 13.456047 C 14.349871 13.63143 13.876347 13.754195 12.929283 13.824348 C 12.543442 13.859425 12.087456 13.876963 11.56131 13.876963 C 10.929934 13.876963 10.491485 13.789273 10.24595 13.613892 C 10.210874 13.508661 10.07057 13.482355 9.825034 13.534969 C 9.579499 13.587584 9.404119 13.613892 9.298891 13.613892 C 9.158585 13.613892 9.027051 13.587584 8.904283 13.534969 C 8.781515 13.482355 8.702595 13.429741 8.667519 13.377127 C 8.632442 13.324512 8.56229 13.228052 8.457061 13.087748 C 8.351831 12.947441 8.28168 12.842214 8.246603 12.77206 C 8.141374 12.912367 8.053684 13.087746 7.983531 13.298204 C 7.948455 13.403434 7.895841 13.534968 7.825688 13.692812 C 7.755535 13.850657 7.702921 13.973422 7.667845 14.061113 C 7.632769 14.148804 7.580155 14.245263 7.510002 14.350492 C 7.439849 14.455721 7.378467 14.525873 7.325851 14.560949 C 7.273237 14.596025 7.211854 14.596025 7.141702 14.560949 C 6.896167 14.455721 6.773401 13.824354 6.773401 12.666832 L 6.826015 11.298859 L 6.352485 11.351473 C 6.282333 11.351473 6.194643 11.351473 6.089414 11.351473 L 5.878956 11.404087 C 5.84388 11.404087 5.826342 11.824998 5.826342 12.666832 C 5.826342 12.912367 5.817573 13.333278 5.800035 13.929577 C 5.782496 14.525877 5.773728 14.946787 5.773728 15.192322 Z M 3.40608 8.247225 C 3.441157 8.247225 3.555154 8.220918 3.748074 8.168303 C 3.940995 8.115688 4.125143 8.071843 4.300525 8.036767 L 4.563597 7.984152 C 4.563597 8.019229 4.467138 8.098149 4.274218 8.220917 C 4.081297 8.343685 3.853304 8.457681 3.590231 8.56291 C 3.327158 8.668139 3.107933 8.720754 2.932551 8.720754 C 2.792245 8.720754 2.704556 8.685678 2.669479 8.615525 C 2.599326 8.440143 2.73963 8.177073 3.090394 7.826309 C 3.300853 7.580774 3.458694 7.458009 3.563924 7.458009 C 3.704229 7.528162 3.730536 7.659696 3.642845 7.852616 C 3.555154 8.045537 3.476233 8.177072 3.40608 8.247225 Z"/>
</svg>
