<?xml version="1.0" encoding="UTF-8"?>
<!-- Generated by Pixelmator Pro 3.5.6 -->
<svg width="102" height="52" viewBox="0 0 102 52" xmlns="http://www.w3.org/2000/svg">
  <defs>
    <style>
    @media(prefers-color-scheme:dark){path{fill:#eae9fc;}}
    @media(prefers-color-scheme:light){path{fill:#040316;}}

      </style>
  </defs>
    <path id="Shape-34" fill="#000000" fill-rule="evenodd" stroke="none" d="M 14.373099 50.729527 C 14.230033 50.684319 14.1499 48.311085 14.126286 43.479721 C 14.116541 41.486477 14.079329 39.576946 14.025757 37.993664 C 14.025969 37.710777 14.025887 37.376968 14.02645 37.135361 L 14.035463 33.132957 C 13.808847 33.094749 13.339885 33.080238 12.843686 33.076801 C 12.839549 33.076408 12.835317 33.075676 12.831206 33.075417 C 12.830064 33.07534 12.82888 33.075478 12.82774 33.075417 C 12.81018 33.075775 12.794583 33.076416 12.777822 33.076801 C 12.291406 33.074356 11.888158 33.081558 11.87515 33.093437 C 11.860852 33.106506 11.868192 33.180161 11.892483 33.272308 C 11.915227 33.358574 11.98436 33.543835 12.046394 33.683434 C 12.108437 33.823029 12.213695 34.095642 12.280036 34.289375 C 12.327155 34.427006 12.398937 34.659409 12.467919 34.887001 C 12.472323 34.920227 12.478476 34.961761 12.482478 34.993073 C 12.494595 35.045425 12.506323 35.097816 12.517143 35.147678 C 12.675827 35.878899 12.637062 35.970909 12.343819 35.558113 C 12.224899 35.390709 12.118273 35.157825 12.047781 34.930679 C 12.053022 34.930664 12.057276 34.930679 12.063034 34.930679 C 12.190743 34.930679 12.190331 34.930878 12.176734 34.829456 C 12.169253 34.773678 11.996797 34.394661 11.793341 33.987793 C 11.522477 33.446167 11.392335 33.214249 11.305953 33.121864 C 11.240978 33.052368 11.084591 32.938293 10.958611 32.868118 C 10.906898 32.839314 10.8509 32.803238 10.797073 32.766205 C 10.638089 32.559105 10.535007 32.370117 10.535007 32.262871 C 10.535007 32.154591 10.722744 32.091099 11.051514 32.074295 C 11.187629 32.052967 11.349298 32.035767 11.528502 32.024376 C 11.80787 32.088081 12.072338 32.136623 12.272409 32.158875 C 12.483598 32.182335 12.936358 32.22459 13.278383 32.252472 C 13.900234 32.303154 13.900667 32.30304 13.974453 32.224045 C 14.015032 32.180603 14.054091 32.117592 14.061809 32.084 C 14.06952 32.050407 14.087935 31.536489 14.102714 30.941446 C 14.117497 30.346405 14.142182 29.15307 14.157483 28.290279 C 14.172782 27.427471 14.197433 25.790564 14.212254 24.65255 C 14.231464 23.176678 14.231073 22.527199 14.210175 22.387548 C 14.203428 22.342493 14.18948 22.282425 14.174123 22.21977 C 14.245887 21.302431 14.369447 21.004421 14.573462 21.004421 C 14.661894 21.004421 14.764853 21.029516 14.871579 21.071671 C 14.876855 21.075575 14.882269 21.07884 14.887526 21.082764 C 15.050427 21.204386 15.248012 21.377392 15.326383 21.467545 C 15.40476 21.557693 15.565854 21.730434 15.684816 21.851631 C 15.803786 21.972809 15.968395 22.109646 16.050184 22.155294 C 16.131968 22.200928 16.338139 22.293819 16.509148 22.361897 C 16.680151 22.429976 16.984358 22.541431 17.185112 22.610098 C 17.385857 22.678761 17.693426 22.777973 17.86801 22.829872 C 18.042597 22.881773 18.346476 22.966038 18.54328 23.017063 C 18.79104 23.08128 18.909576 23.101065 18.928753 23.081539 C 18.947765 23.06217 18.931067 23.031635 18.87537 22.98517 C 18.830759 22.947964 18.629633 22.838039 18.428886 22.740437 C 18.228132 22.64286 17.936216 22.50548 17.779961 22.435387 C 17.623705 22.365274 17.36817 22.257303 17.212151 22.195505 C 17.056128 22.133707 16.765211 22.02877 16.565304 21.961864 C 16.365402 21.894958 16.154871 21.808609 16.097328 21.770515 C 16.034363 21.72883 15.998242 21.686981 16.000959 21.658894 C 16.159601 21.693789 16.323606 21.714357 16.477255 21.714357 C 16.798136 21.714357 17.40971 21.880898 18.030241 22.122017 C 18.267897 22.211208 18.510916 22.315498 18.743643 22.431919 C 18.761543 22.440874 18.77976 22.450577 18.79772 22.459652 C 18.799095 22.460344 18.800505 22.461037 18.80188 22.461731 C 18.889215 22.505388 18.977711 22.551218 19.066025 22.597618 C 19.06996 22.599697 19.073879 22.601772 19.077812 22.603857 C 19.181547 22.65847 19.284567 22.714859 19.387022 22.771635 C 19.814093 23.00831 20.216002 23.25573 20.498377 23.454533 C 20.610416 23.547382 20.72094 23.643291 20.796495 23.71452 C 20.922281 23.833097 21.011627 23.930494 21.075201 24.02165 C 21.168192 24.173019 21.19981 24.301924 21.141756 24.35998 C 21.14023 24.361506 21.137598 24.36278 21.135517 24.364138 C 21.13353 24.366528 21.132181 24.369555 21.129971 24.371765 C 21.092165 24.409569 20.899212 24.392832 20.600985 24.334328 C 20.591612 24.332487 20.583529 24.331396 20.573946 24.329473 C 20.51013 24.318747 20.441788 24.306522 20.369425 24.292728 C 20.369017 24.292606 20.368444 24.29285 20.368038 24.292728 C 20.216349 24.24765 20.024597 24.198732 19.869556 24.167242 C 19.649958 24.122625 19.314629 24.043402 19.124262 23.991144 C 18.933908 23.938887 18.574596 23.829252 18.326279 23.747797 C 18.077959 23.666357 17.710327 23.549858 17.509575 23.488504 C 17.308821 23.427151 17.042183 23.334421 16.916805 23.282595 C 16.791418 23.230755 16.554489 23.127268 16.3899 23.052422 C 16.225311 22.977591 16.001656 22.849636 15.892806 22.768169 C 15.783957 22.686726 15.63341 22.589426 15.558637 22.551861 C 15.483871 22.514282 15.412862 22.493443 15.400565 22.506104 C 15.388276 22.518778 15.36519 22.624521 15.349261 22.740437 C 15.333338 22.85635 15.283766 23.698795 15.239027 24.613031 C 15.194281 25.527283 15.120441 27.069328 15.075409 28.039999 C 15.030369 29.010653 14.986211 30.305046 14.97696 30.915794 C 14.963099 31.829899 14.966466 32.047417 14.99776 32.146397 C 15.035769 32.266602 15.035911 32.266296 15.360353 32.289215 C 15.538797 32.301804 15.933913 32.305237 16.23876 32.296844 C 16.543604 32.28846 16.975916 32.262672 17.198977 32.239296 C 17.422031 32.215935 17.71981 32.17205 17.861076 32.142235 C 18.002348 32.112423 18.193882 32.074783 18.28676 32.05835 C 18.313477 32.053619 18.348946 32.050228 18.387287 32.047256 C 18.387943 32.047203 18.38871 32.047302 18.389368 32.047256 C 18.995667 32.101257 19.409208 32.2061 19.409208 32.325958 C 19.409208 32.333458 19.408047 32.341118 19.407127 32.348839 C 19.407986 32.352901 19.409208 32.356491 19.409208 32.360626 C 19.409208 32.42897 19.361492 32.503857 19.280949 32.575546 C 19.280949 32.575546 19.280254 32.576241 19.280254 32.576241 C 19.177053 32.686363 19.021345 32.791756 18.847637 32.858414 C 18.792423 32.879601 18.721596 32.89938 18.645195 32.918732 C 18.628855 32.921448 18.60932 32.925552 18.594584 32.927742 C 18.464363 32.947113 18.173027 32.951824 17.756388 32.940224 C 17.19577 32.924614 17.015505 32.930794 16.279665 32.993607 C 15.818677 33.032959 15.338053 33.074219 15.211988 33.085121 C 14.982767 33.104935 14.983414 33.104813 14.934669 33.334709 C 14.893992 33.526527 14.881196 33.792404 14.858407 34.937611 C 14.84338 35.692558 14.789495 38.926682 14.738466 42.125019 C 14.693244 44.959583 14.652352 47.584049 14.631699 48.974792 C 14.589221 49.582565 14.544553 50.043522 14.499972 50.289284 C 14.494287 50.320629 14.488865 50.34869 14.483334 50.375946 C 14.478562 50.405781 14.473439 50.441956 14.468774 50.466766 C 14.436979 50.635883 14.407322 50.724136 14.380032 50.729527 C 14.37773 50.72998 14.37537 50.730244 14.373099 50.729527 Z M 17.689138 48.888824 C 17.394697 48.880817 17.168203 48.799191 17.078344 48.653797 C 16.94375 48.43602 17.026093 48.139191 17.261374 47.993778 C 17.496655 47.848366 20.390104 46.70797 23.691702 45.459778 L 29.694962 43.189922 C 29.694975 43.167633 29.694946 43.149742 29.694962 43.127525 L 29.798262 43.083847 C 29.80924 42.330254 29.800417 40.371204 29.785782 38.243942 C 29.771147 36.116684 29.746305 33.58477 29.731012 32.617836 C 29.715721 31.650904 29.690634 30.354549 29.674854 29.73719 C 29.659077 29.119833 29.636509 28.605701 29.624937 28.593943 C 29.613363 28.582201 29.30711 28.535839 28.94412 28.491335 C 28.621181 28.451742 28.183424 28.392267 27.881989 28.347822 C 27.782057 28.322365 27.68067 28.299944 27.578325 28.282652 C 27.474039 28.265034 27.366558 28.243376 27.258022 28.21887 C 26.389332 28.05599 25.61285 27.775337 25.412466 27.533892 C 25.330978 27.435707 25.270803 27.339163 25.231516 27.24548 C 25.122469 27.084213 25.117249 26.93714 25.216955 26.809397 C 25.239414 26.760235 25.271063 26.714388 25.312632 26.672817 C 25.497496 26.487953 26.521223 26.040495 27.587337 25.678629 C 27.622269 25.666773 27.652105 25.656801 27.685787 25.645351 C 27.693083 25.642277 27.700026 25.63942 27.707279 25.636339 C 27.840395 25.599058 27.97661 25.560946 28.081659 25.533037 C 28.341892 25.4639 28.779251 25.345257 29.054354 25.269585 C 29.329458 25.193922 29.572817 25.115051 29.595125 25.094181 C 29.63063 25.06098 29.636927 24.689978 29.641577 22.115776 C 29.641958 21.9044 29.642981 21.713512 29.643658 21.511915 C 29.72233 19.591789 29.871552 18.871815 30.160856 18.967514 C 30.370682 19.036922 30.532902 19.668304 30.627445 20.751368 C 30.707762 21.326807 30.789902 22.097521 30.836821 22.716171 C 30.823854 23.04776 30.809879 23.374441 30.797997 23.611217 C 30.776291 24.043764 30.767567 24.474489 30.778584 24.571434 C 30.798553 24.747248 30.799179 24.747492 31.028864 24.744759 C 31.217649 24.742527 31.605892 24.666643 33.211361 24.31838 C 34.285702 24.085335 36.001408 23.712603 37.023804 23.490585 C 38.046192 23.268553 39.819477 22.879074 40.9645 22.624657 C 42.109524 22.370235 43.545158 22.047058 44.155056 21.907095 C 44.764946 21.767149 45.665386 21.555744 46.15591 21.437038 C 46.646435 21.31835 47.445698 21.117294 47.932137 20.989862 C 48.418571 20.862415 49.160831 20.659641 49.58149 20.539219 C 50.002151 20.418814 50.571651 20.246275 50.846756 20.156519 C 51.121864 20.066784 51.62075 19.896469 51.955338 19.777981 C 52.289917 19.659473 52.655956 19.523037 52.769268 19.474316 C 52.882568 19.425591 53.062572 19.329407 53.168606 19.26078 C 53.274639 19.192173 53.361343 19.123924 53.361343 19.108948 C 53.361343 19.093987 53.315189 19.05233 53.25943 19.016739 C 53.174107 18.96228 52.984943 18.924263 52.063492 18.774086 C 51.461239 18.675941 50.658142 18.552666 50.278946 18.500927 C 49.89975 18.449169 49.175396 18.358658 48.669804 18.299175 C 48.164211 18.239693 47.343208 18.147877 46.845047 18.095348 C 46.346882 18.04282 45.419552 17.950924 44.783875 17.890823 C 44.148201 17.830715 43.113907 17.733181 42.485596 17.674515 C 41.857288 17.615852 40.868484 17.525124 40.288536 17.472767 C 39.708591 17.420414 38.856815 17.347443 38.395836 17.310535 C 37.934853 17.27364 37.138195 17.219139 36.625156 17.189209 C 36.112129 17.159271 35.32119 17.115627 34.867649 17.092842 C 34.414101 17.070065 33.483585 17.027832 32.799545 16.99855 C 32.115501 16.969288 31.056877 16.926624 30.447187 16.904263 C 30.412916 16.903008 30.364073 16.901405 30.32794 16.900105 C 30.286562 16.898285 30.244421 16.896351 30.203148 16.894558 C 28.088724 16.809158 26.105541 16.751991 24.961823 16.750351 C 21.800108 16.745823 21.485437 16.686253 21.697088 16.134705 C 21.71319 16.092739 21.729822 16.050827 21.747005 16.009216 C 21.774557 15.907269 21.817585 15.80304 21.875265 15.709713 C 21.881327 15.699905 21.888737 15.690643 21.896063 15.68129 C 21.932573 15.607792 21.967524 15.542343 21.998672 15.489937 L 22.214287 15.480232 C 22.415031 15.470833 23.23031 15.46159 24.025871 15.460125 C 24.821442 15.458664 25.989584 15.46891 26.621576 15.483006 C 27.025291 15.492016 27.48889 15.505077 27.910414 15.51767 C 28.219944 15.533985 28.542627 15.551838 28.881031 15.571053 C 29.292711 15.590725 29.706774 15.610931 30.135204 15.632755 C 34.485348 15.854362 40.840408 16.363102 44.256969 16.763523 C 47.673531 17.163948 51.252033 17.683151 52.209084 17.917171 C 53.166142 18.151188 54.124557 18.626541 54.338894 18.973755 C 54.340939 18.97707 54.342422 18.980171 54.34444 18.983459 C 54.474266 19.124138 54.551041 19.260967 54.551041 19.373787 C 54.551041 19.398151 54.545906 19.423206 54.537174 19.448662 C 54.545784 19.539063 54.526878 19.617691 54.480324 19.690624 C 54.432884 19.745567 54.361225 19.809746 54.300068 19.850082 C 54.222191 19.901451 54.049122 19.996967 53.915287 20.062231 C 53.880379 20.07925 53.826546 20.103842 53.780094 20.12532 C 53.234097 20.349327 52.313457 20.674183 51.38406 20.964903 C 50.099648 21.36668 46.131157 22.328176 42.565323 23.101645 C 41.355274 23.364117 40.570774 23.534929 39.463512 23.77553 C 38.491215 23.983196 37.397915 24.217224 36.618225 24.384245 C 35.573524 24.608036 33.94627 24.960644 33.001987 25.167669 C 32.05772 25.374668 31.1637 25.583452 31.014997 25.632179 C 30.744629 25.720772 30.744707 25.721102 30.712721 25.914351 C 30.695131 26.020639 30.667526 26.245979 30.651711 26.414911 C 30.635897 26.583813 30.622643 26.990564 30.622593 27.31897 C 30.622499 27.912067 30.623466 27.916449 30.687069 27.976215 C 30.747372 28.032896 30.803782 28.040161 31.666697 28.101702 C 32.170536 28.137638 33.075703 28.197901 33.677952 28.235508 C 34.280205 28.27313 35.521358 28.345867 36.435886 28.397739 C 37.350414 28.449623 39.49202 28.565025 41.194675 28.654261 C 41.71616 28.681585 42.201332 28.70792 42.703983 28.734682 C 44.742199 28.858955 47.240772 29.044691 48.871552 29.198498 C 50.92149 29.391836 53.409294 29.779787 54.399902 30.060959 C 55.141857 30.271553 55.939495 30.627373 56.437504 30.951845 C 56.45998 30.933298 56.501308 30.96456 56.567841 31.041281 C 56.674335 31.11817 56.761429 31.192284 56.823669 31.261057 C 57.068554 31.531652 57.202984 31.740871 57.239647 31.952967 C 57.239933 31.980749 57.241035 32.002193 57.241035 32.037548 C 57.241035 32.108269 57.240856 32.161285 57.238953 32.205326 C 57.238934 32.20583 57.238976 32.206215 57.238953 32.206711 C 57.214668 32.347 57.153534 32.498276 57.058002 32.676769 C 57.057636 32.67746 57.056995 32.678154 57.056618 32.678848 C 57.042068 32.702744 57.025829 32.727371 57.009472 32.752338 C 57.008152 32.754173 57.007355 32.756031 57.006004 32.757885 C 56.687424 33.195015 55.511002 34.078575 54.278576 34.796871 C 52.963989 35.563049 49.572605 37.142506 46.741745 38.306339 C 44.316063 39.303593 40.368732 40.882435 37.290722 42.089661 C 36.525959 42.3885 35.335117 42.849407 34.550117 43.149712 C 33.728523 43.464024 32.481632 43.941078 31.779011 44.210457 C 31.076385 44.479828 30.446165 44.726288 30.379244 44.75816 C 30.263617 44.813217 30.256285 44.824387 30.223253 44.97863 C 30.211168 45.035042 30.198395 45.194939 30.188587 45.386288 C 30.188486 45.386448 30.18869 45.386822 30.188587 45.386982 C 30.085377 45.55011 30.040834 45.722698 30.03537 45.921513 C 30.025036 46.297424 30.019783 46.500172 29.984758 46.530228 C 29.952164 47.226849 29.934896 47.30463 29.868979 46.817947 C 29.867014 46.712994 29.865534 46.607025 29.865511 46.506657 C 29.865433 46.171944 29.853052 45.727657 29.83778 45.519402 C 29.813534 45.188763 29.802988 45.135048 29.753891 45.093716 C 29.721891 45.06678 29.653 45.046574 29.594433 45.046574 C 29.537828 45.046574 29.383989 45.089016 29.252638 45.140862 C 29.202843 45.160522 29.031591 45.220562 28.816553 45.295464 C 28.434742 45.402908 27.190891 45.817379 25.666212 46.341652 C 25.267063 46.483582 24.85614 46.629822 24.443237 46.778427 C 24.336889 46.816704 24.224962 46.856003 24.116001 46.894901 C 24.00321 46.933254 23.880358 46.975037 23.775591 47.010681 C 22.656506 47.391445 21.291241 47.854439 20.741032 48.039536 C 20.19083 48.224617 19.442139 48.468052 19.077812 48.580307 C 18.765255 48.676598 18.408775 48.780426 18.202871 48.836826 C 18.019712 48.875179 17.844812 48.893055 17.689138 48.888824 Z M 52.161942 43.314716 C 51.861618 43.310104 51.632946 43.268616 51.446457 43.187149 C 51.432106 43.180878 51.418026 43.174496 51.404167 43.167736 C 51.384705 43.158443 51.365765 43.148857 51.347317 43.138618 C 51.337307 43.13298 51.327267 43.127213 51.317505 43.121284 C 51.295715 43.108208 51.27425 43.0942 51.253723 43.079689 C 51.226871 43.060612 51.20121 43.040245 51.176071 43.018677 C 51.152218 42.998211 51.129295 42.976261 51.106743 42.953506 C 51.103851 42.950581 51.100605 42.948158 51.097729 42.94519 C 51.090092 42.937332 51.08305 42.92836 51.075542 42.920231 C 51.058624 42.901871 51.04134 42.883842 51.024933 42.864075 C 50.82325 42.621056 50.687244 42.382854 50.667885 42.254665 C 50.667892 42.254406 50.667881 42.254227 50.667885 42.253971 C 50.66877 42.221073 50.676258 42.203228 50.690071 42.189495 C 50.709339 42.170341 50.846416 42.097481 50.995121 42.027958 C 51.028648 42.012283 51.073822 41.993103 51.113674 41.975266 C 51.393715 41.868546 51.777573 41.733978 52.187592 41.601578 C 53.038158 41.326923 53.630116 41.286789 53.870224 41.484413 C 53.915295 41.483418 53.961323 41.483681 54.006805 41.483025 C 54.068005 41.534615 54.135525 41.596684 54.191914 41.656349 C 54.3325 41.805168 54.402962 41.859001 54.496273 41.886524 C 54.588886 41.913845 54.889519 41.922577 55.75391 41.922577 C 56.661533 41.922577 56.976532 41.91243 57.322151 41.874046 C 57.629993 41.839844 57.76366 41.814724 57.785271 41.785995 C 57.801983 41.763798 57.829609 41.673233 57.846973 41.584942 C 57.870598 41.464848 57.871128 41.337025 57.849056 41.07814 C 57.832817 40.887779 57.807766 40.56765 57.793591 40.366817 C 57.779415 40.166 57.760212 38.894661 57.750607 37.540939 C 57.739876 36.027016 57.745369 34.220528 57.765167 32.848015 C 57.782867 31.620735 57.814896 29.794968 57.835884 28.79084 C 57.871647 27.080074 57.870716 26.958986 57.827564 26.870407 C 57.802067 26.818123 57.75124 26.765871 57.713863 26.753241 C 57.675396 26.740248 57.254147 26.761507 56.630932 26.805931 C 56.588505 26.802366 56.544472 26.800152 56.497128 26.800385 C 56.386204 26.808229 56.262093 26.823973 56.131065 26.841288 C 55.599216 26.879477 55.058823 26.916733 54.826283 26.930723 C 54.711246 26.937649 54.618271 26.941757 54.534401 26.94459 C 54.128029 26.917492 53.83757 26.828585 53.653221 26.675591 C 53.36615 26.43734 53.131168 26.102318 53.131168 25.93099 C 53.131168 25.759661 54.149483 25.619005 55.394093 25.619005 C 55.422142 25.619005 55.44091 25.619009 55.468273 25.619005 C 55.597412 25.618986 55.704021 25.617996 55.81839 25.617619 C 56.424088 25.61212 56.809353 25.587927 57.076031 25.501839 C 57.520916 25.497484 57.780998 25.48947 57.792896 25.477573 C 57.807884 25.462582 57.83849 25.267975 57.86084 25.044956 C 57.883217 24.821936 57.913815 24.414021 57.929478 24.138817 C 57.937248 24.002438 57.947361 23.805744 57.957211 23.599432 C 57.957287 23.598478 57.957134 23.597612 57.957211 23.596659 C 57.957249 23.595865 57.957172 23.595373 57.957211 23.59458 C 57.985321 23.246988 58.000881 22.842831 58.003662 22.406267 C 58.016582 21.994223 58.030807 21.515265 58.04179 21.055033 C 58.058659 20.348425 58.064796 19.326073 58.055656 18.7831 C 58.046524 18.240131 58.031681 17.768982 58.022381 17.735527 C 58.013069 17.702053 57.997128 17.674473 57.987713 17.674515 C 57.978291 17.674545 57.946766 17.719994 57.917 17.775738 C 57.876972 17.85067 57.84552 17.876961 57.796364 17.876961 C 57.785564 17.876961 57.774834 17.876152 57.764473 17.872799 C 57.758839 17.790844 57.752617 17.694157 57.747139 17.614895 C 57.732174 17.589142 57.716888 17.568001 57.701382 17.552498 C 57.453358 17.304474 57.394253 16.660954 57.545391 15.855305 C 57.553944 15.809711 57.560612 15.769478 57.568272 15.727047 C 57.563881 15.705914 57.55899 15.685997 57.554405 15.66534 C 57.586403 15.507217 57.620018 15.340302 57.64592 15.218166 C 57.690594 15.007462 57.713364 14.823254 57.708317 14.717606 C 57.700321 14.550495 57.700325 14.550797 57.227169 14.556759 C 56.966938 14.560036 55.671371 14.611313 54.347904 14.671154 C 53.024445 14.730984 51.199211 14.816448 50.292118 14.861118 C 49.88224 14.881306 49.371761 14.905182 48.873634 14.927673 C 45.533871 15.053818 42.156036 15.147449 40.807816 15.147449 C 38.530029 15.147449 37.758457 15.014584 37.285175 14.540813 C 37.273476 14.529106 37.26379 14.518822 37.25259 14.507538 C 37.225838 14.480576 37.199478 14.454556 37.175636 14.429886 C 37.155972 14.40971 37.138535 14.390408 37.120865 14.371651 C 37.112839 14.363052 37.103504 14.354317 37.095905 14.345997 C 37.011833 14.254929 36.954292 14.180832 36.923969 14.116516 C 36.928162 14.056274 36.949749 13.989761 36.983593 13.939034 C 37.021507 13.882175 37.117085 13.808681 37.233871 13.746296 C 37.284031 13.719505 37.351185 13.68697 37.419674 13.655476 C 37.459679 13.639149 37.497944 13.623077 37.545856 13.604862 C 37.555965 13.601021 37.569424 13.597057 37.580521 13.593079 C 37.613861 13.580223 37.639484 13.569336 37.675503 13.555641 C 37.743988 13.529602 37.829041 13.501415 37.92786 13.471752 C 37.950535 13.465157 37.976097 13.457748 37.999966 13.450951 C 38.036747 13.440483 38.073566 13.429737 38.112278 13.41906 C 38.8451 13.218086 40.095558 12.965462 41.222408 12.797867 C 42.846783 12.556267 44.344498 12.535408 45.346138 12.741016 C 45.645035 12.802368 45.878998 12.852554 46.0429 12.894928 C 46.266598 12.932663 46.468086 12.963593 46.629433 12.985748 C 46.80048 13.039696 47.033558 13.116673 47.210415 13.17918 C 47.418598 13.252766 47.758617 13.377533 47.966801 13.456497 C 48.17498 13.535446 48.394016 13.631084 48.453495 13.668648 C 48.531815 13.718098 48.549664 13.739372 48.516586 13.746296 C 48.491459 13.75156 48.180828 13.680992 47.826756 13.589611 C 47.472675 13.498199 47.043091 13.393517 46.872086 13.356663 C 46.701073 13.319817 46.396873 13.266842 46.196121 13.238804 C 45.995369 13.210751 45.667465 13.174767 45.467464 13.159073 C 45.267467 13.143375 44.853741 13.130508 44.548153 13.13065 C 44.242561 13.13081 43.816044 13.143246 43.600418 13.158379 C 43.384796 13.173515 43.04409 13.204521 42.843338 13.227016 C 42.642586 13.249516 42.253204 13.304855 41.978104 13.349731 C 41.702995 13.394588 41.277798 13.474167 41.032444 13.52652 C 40.787079 13.578865 40.376778 13.67474 40.121452 13.740055 C 39.866135 13.805374 39.437843 13.921722 39.169556 13.998657 C 38.901268 14.075607 38.643501 14.161919 38.596199 14.190701 C 38.522987 14.235233 38.515614 14.248699 38.547668 14.280136 C 38.576214 14.308159 38.774578 14.324348 39.369225 14.346691 C 39.989498 14.37001 40.460018 14.367897 41.620361 14.335598 C 42.427094 14.313137 43.725864 14.275856 44.506557 14.253098 C 45.287231 14.230305 46.494415 14.193905 47.189613 14.171982 C 48.036503 14.145256 48.631969 14.113079 48.994267 14.074226 C 49.420265 14.028549 49.682087 14.016644 50.226948 14.020149 C 50.607342 14.022591 51.468071 13.999935 52.139755 13.96954 C 52.81144 13.939148 54.145847 13.877563 55.104984 13.832958 C 56.064125 13.788353 57.73114 13.710003 58.809273 13.658249 C 58.845783 13.656494 58.867355 13.655167 58.904255 13.653393 C 60.34811 13.595612 61.767887 13.537563 63.070274 13.480072 C 68.82962 13.225807 79.40773 13.017643 86.577202 13.017643 C 99.612587 13.017643 99.612793 13.017662 100.409859 13.814934 C 100.911354 14.316559 101.078979 14.524757 100.966576 14.77515 C 100.950211 14.828682 100.91967 14.878376 100.874367 14.92421 C 100.87291 14.92569 100.87101 14.92757 100.869514 14.929062 C 100.869095 14.929485 100.868561 14.930023 100.868126 14.930447 C 100.807068 15.0079 100.725319 15.093365 100.624084 15.194595 C 100.352547 15.466129 99.952774 15.621357 99.640297 15.593933 C 99.566422 15.605453 99.500511 15.604599 99.441322 15.59116 C 99.412148 15.578941 99.382599 15.561573 99.34565 15.537083 C 99.306129 15.510906 99.244667 15.455616 99.18203 15.392181 C 99.157822 15.353474 99.135437 15.309021 99.114784 15.259071 C 99.041809 15.144451 98.995949 15.010704 98.986519 14.875675 C 98.976715 14.851944 98.964409 14.82851 98.953239 14.804962 C 98.967705 14.774448 98.983337 14.744617 98.999695 14.7183 C 99.045227 14.644993 99.137062 14.51421 99.203522 14.427807 C 99.269958 14.341415 99.324158 14.25322 99.324158 14.231606 C 99.324158 14.209991 99.266525 14.167431 99.1959 14.137314 C 99.091446 14.0928 98.860733 14.064659 97.959053 13.985485 C 97.349373 13.931953 96.619293 13.869621 96.336739 13.847519 C 96.054214 13.82542 95.488037 13.789192 95.079102 13.767094 C 94.670166 13.744991 94.049583 13.714134 93.700134 13.69846 C 93.350677 13.682766 92.72435 13.658703 92.307991 13.644382 C 91.891624 13.630066 89.48877 13.618546 86.968216 13.618729 C 84.447693 13.618916 81.618927 13.629807 80.682098 13.643688 C 79.745255 13.657558 78.601456 13.682453 78.140472 13.69846 C 77.679482 13.714462 76.542099 13.756992 75.612709 13.793442 C 75.002289 13.817379 74.172272 13.847134 73.378906 13.874557 C 72.396194 13.902287 71.433769 13.93066 70.528069 13.958447 C 66.853447 14.092117 63.688824 14.232533 61.988037 14.335598 C 60.599331 14.402802 59.385029 14.465031 59.255062 14.475643 L 58.998543 14.496445 C 59.014362 16.110489 59.004753 16.907482 58.98745 17.309151 C 58.970139 17.710796 58.925987 18.544991 58.889694 19.162331 C 58.853405 19.77969 58.798817 20.771278 58.768368 21.366323 C 58.737926 21.961363 58.682903 22.979305 58.645653 23.62855 C 58.608387 24.277809 58.581188 24.971756 58.585335 25.170443 C 58.592903 25.531681 58.592636 25.531586 58.754501 25.563541 C 58.843525 25.581108 59.085556 25.616295 59.2925 25.641884 C 59.58527 25.678078 59.777737 25.684731 60.158428 25.671696 C 60.427525 25.66247 61.204407 25.624666 61.884735 25.587114 C 62.565067 25.549562 63.678104 25.488308 64.358421 25.451227 C 64.36618 25.450806 64.378288 25.45027 64.386154 25.449841 C 65.362366 25.4172 66.431221 25.373787 67.575317 25.319502 C 68.052155 25.296877 68.548653 25.273773 69.036789 25.250866 C 70.138939 25.183846 71.202431 25.111025 72.133743 25.03941 C 72.836205 24.998747 73.531097 24.96105 73.814293 24.949282 C 74.171181 24.934433 75.129944 24.904032 75.944107 24.88203 C 76.758263 24.860016 78.053818 24.823318 78.823364 24.800915 C 79.592903 24.778503 80.654282 24.742016 81.181961 24.719799 C 81.421562 24.709717 81.667366 24.701246 81.887741 24.694147 C 82.463928 24.748455 82.855812 24.81456 82.965813 24.879257 C 82.938477 24.893244 82.904175 24.908991 82.865288 24.92363 C 82.779785 24.955803 82.618378 24.999226 82.506851 25.019997 C 82.395317 25.040783 81.875267 25.08243 81.351128 25.1129 C 80.826981 25.14337 79.147781 25.241121 77.619804 25.329901 C 76.09185 25.418692 74.154602 25.534037 73.31443 25.58642 C 72.474251 25.638807 70.691971 25.760431 69.353622 25.856808 C 68.015305 25.95318 66.433426 26.062914 65.838608 26.100155 C 65.243797 26.137402 64.386284 26.192091 63.932735 26.222174 C 63.479183 26.25226 62.639584 26.319239 62.067074 26.370541 C 61.49456 26.421839 60.576214 26.499884 60.026009 26.544558 C 59.475796 26.589233 58.928238 26.635735 58.809273 26.647165 C 58.592979 26.667936 58.592983 26.667618 58.532646 26.848221 C 58.499443 26.947542 58.459412 27.142149 58.443905 27.280838 C 58.428379 27.419514 58.391842 27.989643 58.362789 28.547493 C 58.333729 29.105339 58.285633 30.079037 58.25602 30.711271 C 58.226395 31.343508 58.18367 32.341526 58.161037 32.929131 C 58.138409 33.516731 58.108303 34.368805 58.093788 34.822525 C 58.079269 35.27623 58.053295 36.401623 58.036243 37.323936 C 58.019207 38.246254 58.010204 39.585533 58.01614 40.299568 C 58.018085 40.534233 58.019588 40.70858 58.021687 40.869457 L 58.000889 41.642487 L 58.054272 41.641792 C 58.058735 41.663479 58.063744 41.681507 58.069523 41.694481 C 58.111782 41.789371 58.116894 41.791973 58.334362 41.822742 C 58.505959 41.847019 58.932087 41.844669 60.217358 41.813728 C 61.130749 41.79174 62.70203 41.755753 63.709496 41.733307 C 64.716949 41.710876 66.530022 41.674419 67.738243 41.652191 C 68.946465 41.629944 71.005409 41.592602 72.314003 41.569687 C 73.622574 41.546783 75.651459 41.509953 76.82251 41.487877 C 78.154419 41.462776 81.293747 41.441601 85.205856 41.43103 C 88.749443 41.421471 90.550102 41.421692 91.195251 41.432415 C 91.384773 41.472607 91.467712 41.520004 91.467712 41.575233 C 91.467712 41.622803 91.446617 41.664955 91.40255 41.702106 C 91.311424 41.715378 91.12059 41.71944 90.731438 41.71944 C 90.353317 41.71944 89.339653 41.737961 88.478912 41.760345 C 87.828407 41.777287 86.62101 41.806084 85.544189 41.831757 C 84.521431 41.818836 83.31897 41.820015 82.056213 41.834526 C 81.252052 41.864059 80.198479 41.898476 78.866348 41.939911 C 76.921158 42.000408 74.619087 42.084694 72.288353 42.177711 C 72.159775 42.183899 72.016396 42.190842 71.886238 42.197121 C 71.203262 42.214691 70.505394 42.232758 69.98175 42.246346 C 69.11557 42.268822 68.030045 42.299702 67.569077 42.314983 C 67.108093 42.330246 66.353668 42.360764 65.892685 42.382927 C 65.431694 42.405083 64.503708 42.453506 63.830822 42.490387 C 63.157928 42.527267 61.92321 42.594936 61.08675 42.640137 C 60.25029 42.685349 59.316563 42.732727 59.011715 42.746212 C 58.641338 42.762608 58.408073 42.785915 58.308712 42.815544 C 58.201351 42.847542 57.930679 42.870136 57.335323 42.89666 C 56.881771 42.916855 56.236862 42.958199 55.902279 42.988869 C 55.567696 43.019535 54.850834 43.093426 54.309082 43.153179 C 54.231293 43.161758 54.155739 43.168957 54.076134 43.177444 C 53.827278 43.197784 53.617588 43.216618 53.471577 43.232216 C 53.002251 43.282341 52.630291 43.310699 52.326946 43.313332 C 52.325825 43.313339 52.3246 43.31332 52.323479 43.313332 C 52.321789 43.31337 52.320309 43.313293 52.318626 43.313332 C 52.303856 43.313438 52.288689 43.314041 52.274254 43.314022 C 52.236092 43.314491 52.198009 43.315269 52.161942 43.314716 Z M 30.444414 42.826637 C 30.467115 42.826656 30.493996 42.825371 30.526917 42.82317 C 30.640057 42.815601 30.79859 42.769569 31.042036 42.67411 C 31.235353 42.598309 34.343979 41.462688 37.950047 40.150509 C 37.990215 40.13596 38.02684 40.122154 38.067215 40.107525 C 38.15519 40.075645 38.234116 40.047569 38.32304 40.015316 C 38.329807 40.012863 38.336372 40.010147 38.343147 40.00769 C 38.379635 39.994411 38.384373 39.992519 38.420795 39.979263 C 41.774437 38.758724 45.023109 37.575115 45.574234 37.372467 C 46.161613 37.156487 47.074078 36.815983 47.601433 36.616081 C 48.128788 36.416164 48.931187 36.105385 49.385288 35.92556 C 49.839367 35.745712 50.57605 35.447121 51.02216 35.262074 C 51.468277 35.077003 52.125355 34.796093 52.482243 34.638107 C 52.83913 34.480103 53.374535 34.231239 53.67194 34.084854 C 53.969345 33.938469 54.346573 33.744797 54.510136 33.65432 C 54.673721 33.563824 54.977917 33.377693 55.1861 33.240417 C 55.394287 33.103149 55.686325 32.899902 55.835026 32.789085 C 55.98373 32.678261 56.173206 32.513077 56.255859 32.421635 C 56.338501 32.330208 56.464497 32.170338 56.53595 32.066666 C 56.607418 31.962997 56.683998 31.822369 56.706501 31.75399 C 56.743767 31.640764 56.743629 31.61854 56.701649 31.508564 C 56.674381 31.437151 56.609577 31.348204 56.542885 31.290869 C 56.480854 31.237553 56.341312 31.1388 56.232979 31.071093 C 56.124645 31.003387 55.942131 30.907982 55.8274 30.858944 C 55.712662 30.809904 55.405426 30.70101 55.145199 30.616983 C 54.884956 30.532967 54.465519 30.411339 54.212711 30.346598 C 53.959919 30.281851 53.533386 30.185154 53.264977 30.132368 C 52.996574 30.07958 52.521614 29.994047 52.209084 29.942406 C 51.896561 29.890762 51.343212 29.811773 50.97987 29.766308 C 50.616528 29.720879 50.08223 29.659689 49.792252 29.630423 C 49.502274 29.601152 48.94828 29.552889 48.561649 29.522961 C 48.175011 29.493036 47.567307 29.449718 47.210415 29.427286 C 46.853523 29.404842 46.196442 29.368151 45.750332 29.345476 C 45.304211 29.322803 44.260956 29.27388 43.431946 29.236629 C 42.824944 29.209354 42.019661 29.171808 41.293819 29.138182 C 40.131039 29.078869 38.950592 29.025284 37.828026 28.980803 C 37.826408 28.980738 37.824795 28.980867 37.823174 28.980803 C 37.123352 28.9505 35.801968 28.895164 34.881516 28.858089 C 33.959549 28.820969 33.010437 28.77244 32.772507 28.749935 C 32.534584 28.727419 31.958353 28.695427 31.491987 28.679218 C 30.785942 28.654688 30.638456 28.656391 30.610113 28.686844 C 30.606192 28.691059 30.602091 28.702349 30.598326 28.71735 L 30.413216 28.710417 L 30.416683 32.617836 C 30.413956 32.703625 30.409868 32.814171 30.407669 32.888222 C 30.392212 33.408878 30.367243 34.456253 30.352205 35.214928 C 30.337166 35.973602 30.311749 37.646999 30.296049 38.933773 C 30.28035 40.220543 30.271952 41.602661 30.276636 42.005772 C 30.283537 42.598907 30.292566 42.748016 30.324474 42.786423 C 30.348307 42.815125 30.376314 42.826569 30.444414 42.826637 Z M 13.126551 39.558434 C 13.080804 39.558872 13.031806 39.557079 12.980266 39.553581 C 12.979841 39.553516 12.979304 39.553646 12.978879 39.553581 C 12.780512 39.523388 12.511225 39.470776 12.370164 39.434334 C 12.22508 39.396854 11.884133 39.298012 11.613084 39.214558 C 11.342034 39.131088 10.922552 38.991547 10.680599 38.904655 C 10.605588 38.877716 10.505774 38.840427 10.412293 38.805511 C 10.318142 38.763542 10.224033 38.720383 10.129429 38.675865 C 9.806595 38.57122 9.248583 38.323223 8.707477 38.037338 C 7.995138 37.660988 6.652417 36.430351 5.72422 35.302284 C 5.704435 35.27824 5.681966 35.252426 5.661823 35.228104 C 5.49196 35.060463 5.322818 34.890221 5.155023 34.719917 C 4.948786 34.463295 4.647221 34.083374 4.463806 33.848442 C 4.272186 33.602974 3.959276 33.195206 3.768429 32.942299 C 3.577576 32.689415 3.354355 32.407322 3.272722 32.314865 C 3.191096 32.222397 3.052354 32.090836 2.964205 32.022987 C 2.876049 31.955141 2.654035 31.820225 2.471271 31.722792 C 2.413084 31.691771 2.352677 31.657253 2.293093 31.622957 C 1.763998 31.080536 1.298326 30.509489 1.16094 30.212791 C 1.068904 30.014032 1.018601 29.802193 1.011187 29.624182 C 0.987516 29.47373 1.00053 29.355442 1.058332 29.29764 C 1.065077 29.290894 1.073295 29.285734 1.081904 29.281 C 1.088928 29.271297 1.096018 29.262657 1.104089 29.254656 C 1.204316 29.155275 1.455128 29.269672 1.739149 29.520187 C 1.73968 29.520546 1.740005 29.521215 1.740536 29.521574 C 1.775306 29.545063 1.811392 29.570944 1.847304 29.597143 C 1.880876 29.634642 1.913289 29.672352 1.940899 29.706684 C 2.030901 29.818609 2.189423 30.038359 2.293093 30.195459 C 2.396757 30.352547 2.537348 30.533947 2.60577 30.598265 C 2.674185 30.662565 2.785977 30.743525 2.853971 30.777828 C 2.921962 30.812149 3.403267 30.962551 3.923728 31.111998 C 4.444189 31.261431 5.137781 31.451872 5.464927 31.535603 C 5.502655 31.545258 5.555811 31.559408 5.59804 31.570267 C 5.705103 31.604378 5.812712 31.637594 5.920423 31.669409 C 6.094943 31.720953 6.274087 31.776009 6.455648 31.833719 C 7.151687 32.027973 7.828047 32.222061 8.277633 32.359238 C 9.086131 32.605927 10.204285 33.185524 10.762408 33.647385 C 11.604184 34.343964 11.730364 34.454842 10.783901 34.05851 C 10.726737 34.021194 10.671027 33.986263 10.628602 33.961449 C 10.52451 33.900566 10.324083 33.797031 10.182813 33.731274 C 10.041548 33.665493 9.792443 33.569069 9.628868 33.517044 C 9.465288 33.465034 9.136752 33.372948 8.898827 33.312523 C 8.660901 33.252098 8.204248 33.140694 7.884533 33.064323 C 7.502984 32.973167 7.271924 32.93 7.211342 32.939529 C 7.16058 32.947506 7.108086 32.965118 7.094868 32.978355 C 7.080835 32.992386 7.108139 33.051765 7.160731 33.12117 C 7.210293 33.186592 7.347719 33.313385 7.466475 33.402649 C 7.585237 33.491901 8.201099 33.916298 8.835043 34.34623 C 9.468988 34.776161 10.618782 35.556404 11.389842 36.080162 C 12.160916 36.603912 12.80058 37.025284 12.811101 37.016113 C 12.821622 37.006927 12.811726 36.907795 12.788916 36.796341 C 12.776589 36.736141 12.756411 36.655827 12.734838 36.576565 C 12.759966 36.564178 12.778584 36.545868 12.788916 36.520409 C 12.877256 36.302708 12.961026 36.445366 12.985812 36.829617 C 12.976186 36.880726 12.957695 36.924671 12.923415 36.975208 C 12.859477 37.069466 12.855923 37.088402 12.885977 37.161705 C 12.904367 37.206535 12.937194 37.291107 12.958774 37.34959 C 12.970943 37.382568 12.978543 37.418396 12.982346 37.454277 C 12.982369 37.45451 12.982321 37.454739 12.982346 37.454971 C 12.934325 37.680817 12.754515 37.593948 12.225266 37.254608 C 12.223828 37.253822 12.222548 37.253315 12.221106 37.252529 C 12.133409 37.204571 12.036531 37.149208 11.930614 37.08683 C 11.855484 37.042583 11.763807 36.984562 11.664388 36.919746 C 11.663671 36.919228 11.663026 36.918877 11.662308 36.918358 C 11.115577 36.524807 10.142821 35.823471 9.499915 35.359135 C 9.422709 35.303371 9.354149 35.253647 9.276673 35.197594 C 8.89115 34.900475 8.472454 34.563866 8.101535 34.251244 C 7.833715 34.050701 7.562304 33.857765 7.298697 33.677197 C 7.159698 33.539085 6.989615 33.352661 6.890345 33.22794 C 6.775595 33.083786 6.657326 32.933235 6.627586 32.893078 C 6.577403 32.825302 6.535953 32.813389 6.052843 32.726685 C 5.834383 32.687481 5.585879 32.641918 5.372025 32.602585 C 5.282025 32.574726 5.192941 32.548805 5.107186 32.52771 C 5.093094 32.524242 5.080204 32.521976 5.066281 32.5187 C 5.059717 32.517441 5.052692 32.515732 5.046175 32.514538 C 4.903211 32.488297 4.779057 32.466076 4.665555 32.447289 C 4.626376 32.443115 4.589609 32.440628 4.554628 32.438965 C 4.542605 32.436241 4.522364 32.432449 4.511643 32.429955 C 4.359301 32.394489 4.153747 32.356667 4.054761 32.346066 C 3.874788 32.326782 3.875091 32.326672 3.893223 32.418167 C 3.903186 32.468494 3.949853 32.564754 3.997217 32.631706 C 4.044575 32.698654 4.211253 32.929726 4.367438 33.145439 C 4.523616 33.361145 4.778641 33.70813 4.934555 33.916382 C 5.09046 34.124657 5.327942 34.435135 5.462153 34.606216 C 5.596359 34.77729 5.851949 35.09351 6.029964 35.309219 C 6.207978 35.52491 6.479851 35.843525 6.633825 36.017075 C 6.787794 36.190639 7.032015 36.446049 7.176677 36.584885 C 7.321346 36.723728 7.542816 36.920616 7.668918 37.022354 C 7.795026 37.124077 8.060663 37.315193 8.258913 37.447346 C 8.457154 37.579514 8.785006 37.772243 8.988262 37.875107 C 9.191517 37.977966 9.565342 38.143456 9.818138 38.243248 C 10.070933 38.343025 10.48396 38.50375 10.736756 38.600296 C 10.989558 38.696846 11.409707 38.848373 11.669934 38.937241 C 11.930168 39.026089 12.31312 39.147415 12.521303 39.206238 C 12.729491 39.265064 13.02796 39.341293 13.184094 39.376099 C 13.397003 39.423576 13.454647 39.442577 13.47112 39.479397 C 13.397026 39.532516 13.279247 39.556969 13.126551 39.558434 Z M 29.39823 27.922138 C 29.513214 27.924797 29.544645 27.915329 29.568087 27.871527 C 29.583887 27.84199 29.61161 27.687092 29.629791 27.526958 C 29.647968 27.36684 29.662838 27.094551 29.662376 26.921711 C 29.661909 26.748861 29.646229 26.487358 29.62771 26.340729 C 29.6092 26.194084 29.58252 26.062584 29.568781 26.048849 C 29.553495 26.033556 29.425705 26.047415 29.238771 26.084208 C 29.070734 26.117268 28.738335 26.192282 28.50041 26.251293 C 28.26248 26.310301 27.903872 26.405996 27.703119 26.464134 C 27.502365 26.522255 27.17383 26.626263 26.973078 26.695004 C 26.772333 26.76371 26.478222 26.88143 26.319992 26.956375 C 26.110798 27.055454 25.996763 27.129049 25.901239 27.226068 C 25.800783 27.328094 25.778635 27.364569 25.806952 27.382059 C 25.827316 27.39465 26.017656 27.443243 26.230556 27.489521 C 26.31996 27.508947 26.44795 27.533995 26.575817 27.558851 C 26.617397 27.5735 26.663187 27.587206 26.713091 27.599754 C 26.828945 27.624184 26.957167 27.645721 27.09371 27.664925 C 27.146147 27.670805 27.201004 27.675966 27.256636 27.680178 C 27.505913 27.719915 27.807207 27.764208 28.013716 27.789719 C 28.266512 27.820961 28.649462 27.86268 28.865084 27.88262 C 29.080708 27.902563 29.320681 27.920334 29.39823 27.922138 Z M 5.962021 25.187775 C 5.782828 25.187155 5.648255 25.144081 5.543962 25.053968 C 5.524517 25.043198 5.506783 25.031532 5.489885 25.019304 C 5.439974 24.948528 5.391667 24.87174 5.360239 24.810621 C 5.356513 24.803375 5.354681 24.798733 5.351226 24.791903 C 5.34897 24.777969 5.34699 24.763805 5.34568 24.748919 C 5.343998 24.744663 5.342485 24.740759 5.340827 24.736439 C 5.190863 24.345638 5.504377 23.772692 6.357893 22.888109 C 6.359417 22.88653 6.360526 22.884838 6.362053 22.883257 C 6.364453 22.880732 6.366582 22.878155 6.368986 22.875629 C 6.47348 22.765913 6.582555 22.658796 6.692062 22.55394 C 6.873311 22.380394 7.056246 22.216789 7.225208 22.083885 C 7.226916 22.082542 7.228354 22.081062 7.230061 22.079725 C 7.76429 21.650244 8.213211 21.418945 8.372614 21.517462 C 8.647106 21.687107 8.539906 22.059958 8.030819 22.707159 C 8.000159 22.746136 7.97146 22.784597 7.943463 22.822939 C 7.922027 22.860451 7.902673 22.898098 7.88384 22.935253 C 7.73399 23.130993 7.582692 23.334469 7.490047 23.468399 C 7.346931 23.675266 7.238044 23.852142 7.247393 23.861498 C 7.256741 23.870852 7.412951 23.849924 7.594735 23.815048 C 7.721706 23.790688 7.918076 23.747446 8.098762 23.704121 C 8.16853 23.697092 8.244594 23.685368 8.326857 23.668762 C 8.525791 23.614538 8.750339 23.541534 8.981329 23.455919 C 9.0145 23.445381 9.050646 23.434155 9.079083 23.424721 C 9.282291 23.357344 9.607747 23.241474 9.802886 23.166815 C 9.905006 23.127752 10.048168 23.07024 10.195292 23.01013 C 10.518003 22.916536 10.753166 22.87956 10.801927 22.92832 C 10.868555 22.994947 10.459908 23.28816 9.831311 23.641724 C 9.606574 23.781162 9.311198 23.942678 8.968849 24.109005 C 8.78328 24.199162 8.587746 24.289625 8.39064 24.378004 C 8.184173 24.467381 7.998203 24.548632 7.822136 24.624125 C 7.811426 24.628595 7.800919 24.633554 7.790245 24.637991 C 7.508252 24.755201 7.238587 24.860538 7.007513 24.943735 C 6.945743 24.965975 6.89003 24.985182 6.834188 25.004051 C 6.791095 25.018726 6.745046 25.034628 6.705928 25.047035 C 6.667415 25.059252 6.630668 25.070454 6.596387 25.080315 C 6.568565 25.08835 6.543436 25.095407 6.518738 25.101807 C 6.514621 25.102865 6.509597 25.104259 6.505566 25.105272 C 6.503864 25.105701 6.502409 25.106237 6.500712 25.106659 C 6.495859 25.107878 6.491006 25.108948 6.486153 25.110126 C 6.277692 25.161455 6.10536 25.188271 5.962021 25.187775 Z M 20.885237 21.945919 C 20.631813 21.944489 20.394732 21.925266 20.200953 21.891148 C 20.037865 21.862452 19.473635 21.728958 18.946779 21.594418 C 18.646231 21.517668 18.371901 21.444086 18.172365 21.387121 C 18.120174 21.356256 18.068346 21.324341 18.017067 21.290752 C 17.856081 21.203953 17.73757 21.118181 17.678045 21.042553 C 17.613583 20.989948 17.552284 20.935797 17.493628 20.881014 C 17.47024 20.824839 17.450153 20.76527 17.44371 20.729183 C 17.432362 20.665653 17.44203 20.60635 17.474909 20.541992 C 17.502785 20.487448 17.555079 20.436365 17.598316 20.421358 C 17.647575 20.404268 17.795326 20.406672 18.030933 20.428291 C 18.227716 20.446342 18.576933 20.502457 18.807426 20.553085 C 19.037922 20.603725 19.445892 20.694481 19.713566 20.754835 C 19.98123 20.815187 20.28544 20.877159 20.38953 20.892107 C 20.493624 20.90707 20.712641 20.919119 20.876225 20.919146 C 21.039797 20.919159 21.29845 20.901402 21.45166 20.879629 C 21.604868 20.857843 21.890509 20.803205 22.086027 20.758301 C 22.281536 20.713413 22.452806 20.665398 22.466646 20.651533 C 22.482168 20.636013 22.453924 20.610386 22.393158 20.584976 C 22.338989 20.562347 22.20042 20.524538 22.085333 20.501087 C 21.980116 20.479652 21.757267 20.447931 21.566055 20.425518 C 21.635292 20.385017 21.68782 20.340891 21.716499 20.294485 C 21.744457 20.24925 21.797112 20.206104 21.867638 20.166225 C 22.015263 20.156883 22.131908 20.148453 22.295403 20.138494 C 23.307365 20.076853 23.664745 20.064167 23.761032 20.08511 C 23.852079 20.104923 23.911644 20.139475 23.970407 20.206436 C 23.992401 20.231495 24.008274 20.252274 24.020325 20.272993 C 24.022322 20.282022 24.023792 20.290829 24.023792 20.300032 C 24.023792 20.403833 23.880552 20.585218 23.653572 20.789499 C 23.542908 20.916454 23.393578 21.045731 23.217487 21.161106 C 23.132044 21.217091 23.033316 21.274008 22.924917 21.329578 C 22.924017 21.330038 22.923044 21.330503 22.922144 21.330965 C 22.904736 21.341824 22.887741 21.352823 22.870146 21.36355 C 22.671864 21.484446 22.445539 21.597006 22.213594 21.694252 C 22.210815 21.695417 22.208054 21.69656 22.205275 21.697718 C 22.160376 21.715281 22.11763 21.731642 22.083254 21.743477 C 21.929316 21.796478 21.684124 21.864197 21.538322 21.893921 C 21.341274 21.93409 21.173483 21.947536 20.885237 21.945919 Z M 11.715692 20.290325 C 10.287561 20.293652 9.652366 20.104193 8.859308 19.436878 C 8.298451 18.964947 7.428936 17.806862 6.926397 16.863358 C 6.488807 16.041801 6.047037 14.95689 5.862186 14.271122 C 5.831509 14.124477 5.798867 13.963089 5.764431 13.786507 C 5.690478 13.250286 5.737717 12.840157 5.885758 12.840157 C 6.052424 12.840157 6.381406 13.359295 6.616493 13.993805 C 6.724415 14.285088 6.867077 14.652985 7.013752 15.021961 C 7.045365 15.138474 7.077347 15.253563 7.101801 15.345039 C 7.162978 15.573891 7.254947 15.870125 7.30563 16.002979 C 7.356307 16.135815 7.467056 16.380184 7.551751 16.54583 C 7.636438 16.711468 7.798617 16.987564 7.912265 17.159397 C 8.025913 17.331238 8.216322 17.593006 8.335176 17.741768 C 8.454033 17.890526 8.659891 18.133305 8.792752 18.281151 C 8.929667 18.433514 9.116122 18.606297 9.223289 18.679798 C 9.327283 18.75111 9.512019 18.851757 9.633721 18.903038 C 9.755417 18.954323 9.980186 19.026531 10.133588 19.063885 C 10.286999 19.101231 10.552579 19.150452 10.723584 19.173424 C 10.894595 19.1964 11.1802 19.227818 11.358644 19.242756 C 11.537086 19.257687 11.853461 19.269691 12.061647 19.269794 C 12.269831 19.269909 12.580473 19.257523 12.751477 19.242062 C 12.922489 19.226593 13.213199 19.189678 13.39763 19.160252 C 13.582067 19.130825 13.852533 19.076694 13.998718 19.039619 C 14.144912 19.002552 14.396518 18.92535 14.558209 18.868374 C 14.719909 18.811398 15.076451 18.649342 15.349955 18.507858 C 15.623457 18.366398 16.096148 18.113354 16.400991 17.945595 C 16.705839 17.777847 17.192558 17.506123 17.482536 17.342426 C 17.772501 17.178722 18.131187 16.964981 18.279133 16.867519 C 18.438715 16.762394 18.672237 16.570023 18.853876 16.393997 C 19.108404 16.147335 19.177065 16.063145 19.260841 15.893436 C 19.270235 15.874409 19.275299 15.862446 19.283028 15.846294 C 19.442129 15.701176 19.574169 15.60767 19.659489 15.579372 C 19.662716 15.644978 19.65877 15.71019 19.644928 15.787361 C 19.638494 15.823227 19.628841 15.864658 19.617889 15.905914 C 19.375332 16.223465 18.85536 16.732506 18.254868 17.224567 C 17.424845 17.904709 16.027153 18.871815 15.148898 19.373787 C 14.004622 20.027802 13.031602 20.287262 11.715692 20.290325 Z M 17.330009 20.290325 C 17.277348 20.288206 17.225227 20.273077 17.165005 20.242489 C 17.10162 20.210302 17.003401 20.131519 16.947309 20.067778 C 16.900627 20.014725 16.840006 19.929401 16.797558 19.859787 C 16.779318 19.794449 16.771727 19.731476 16.77676 19.667744 C 16.7087 19.506809 16.779343 19.37273 17.023573 19.181049 C 17.03933 19.162048 17.058174 19.141979 17.075571 19.12212 C 17.094597 19.110313 17.110737 19.098999 17.131035 19.086761 C 17.31691 18.974724 17.572443 18.809956 17.698845 18.720703 C 17.825243 18.631454 18.038532 18.470493 18.172365 18.362961 C 18.306198 18.255424 18.549927 18.039219 18.714523 17.882507 C 18.879122 17.725773 19.122486 17.47411 19.255297 17.323013 C 19.388113 17.171921 19.600336 16.910027 19.726738 16.741341 C 19.853132 16.572639 20.035089 16.309196 20.13093 16.155502 C 20.226776 16.001793 20.379992 15.72797 20.471338 15.547482 C 20.562685 15.366982 20.723185 15.00782 20.828386 14.749496 C 20.933578 14.491142 21.088284 14.087955 21.171568 13.853065 C 21.254845 13.618156 21.382805 13.222549 21.45582 12.973965 C 21.486517 12.869488 21.520296 12.750664 21.552881 12.63702 C 21.63662 12.490406 21.705364 12.399284 21.751858 12.377728 C 21.739246 12.514523 21.726957 12.656075 21.711647 12.806187 C 21.689646 13.021881 21.64694 13.362438 21.616665 13.563267 C 21.586395 13.764099 21.537489 14.056011 21.507818 14.212193 C 21.478352 14.367302 21.412111 14.662079 21.360146 14.870132 C 21.359694 14.871765 21.359211 14.873348 21.358759 14.874985 C 21.35117 14.902447 21.344294 14.929279 21.336573 14.956791 C 20.940802 16.367317 20.287874 17.601849 19.398115 18.624332 C 19.240595 18.800243 19.052744 19.001282 18.889929 19.164413 C 18.62887 19.425983 18.32065 19.71439 18.20495 19.80571 C 18.089243 19.897034 17.880348 20.040419 17.740442 20.123934 C 17.593693 20.211538 17.442825 20.280979 17.383394 20.288246 C 17.365448 20.290442 17.347565 20.291033 17.330009 20.290325 Z M 19.387022 14.940845 C 19.354557 14.934536 19.263292 14.906075 19.148527 14.868744 C 19.119104 14.862793 19.062403 14.851883 19.028587 14.845173 C 18.986732 14.823456 18.946802 14.802853 18.888542 14.773762 C 18.687786 14.673538 18.414352 14.560307 18.280519 14.522095 C 18.146694 14.483887 17.903322 14.432194 17.739748 14.407009 C 17.513182 14.372116 17.290604 14.362701 16.806572 14.366798 C 16.505072 14.369347 15.954985 14.381634 15.481681 14.395222 C 15.378925 14.390789 15.275986 14.386433 15.171083 14.382744 C 15.021253 14.393608 14.870101 14.406651 14.717668 14.421566 C 14.383491 14.434601 14.072755 14.447468 13.927309 14.456924 C 13.704254 14.471447 13.186254 14.491005 12.776436 14.500603 C 12.322073 14.511257 11.780954 14.506138 11.389149 14.486736 C 11.084473 14.471645 10.694917 14.445232 10.441412 14.424339 C 9.449612 14.284119 8.325383 13.852448 7.815897 13.414207 C 7.321281 12.988754 6.846286 12.24604 6.760699 11.76416 C 6.670084 11.253971 6.916935 10.386421 7.351388 9.687042 C 7.539134 9.384811 7.698256 9.162502 7.838776 9.010384 C 7.841796 9.007309 7.844785 9.003719 7.847788 9.000679 C 7.908515 8.939266 7.964521 8.888268 8.004474 8.857166 C 8.006516 8.855576 8.009455 8.852402 8.011406 8.850925 C 8.012897 8.8498 8.014091 8.849262 8.015566 8.848152 C 8.016259 8.847656 8.016954 8.847256 8.017646 8.846767 C 8.197762 8.718872 8.345984 8.734859 8.487701 8.876579 C 8.547838 8.936714 8.590859 9.007481 8.618734 9.090115 C 8.643877 9.139107 8.655318 9.200756 8.653399 9.277996 C 8.653358 9.279701 8.653454 9.281136 8.653399 9.282852 C 8.663822 9.503304 8.595719 9.794792 8.446104 10.187603 C 8.384802 10.306614 8.323494 10.424343 8.276939 10.510681 C 8.177812 10.694515 8.042446 10.965153 7.976048 11.111767 C 7.909657 11.258369 7.824558 11.470867 7.786778 11.584595 C 7.748053 11.701157 7.711143 11.886616 7.702889 12.008896 C 7.690379 12.194263 7.697584 12.2463 7.74934 12.366634 C 7.78275 12.444328 7.861022 12.554634 7.924051 12.612755 C 7.986887 12.670704 8.116431 12.755192 8.211769 12.80064 C 8.307106 12.846085 8.478068 12.914379 8.591696 12.952473 C 8.705322 12.990566 8.948689 13.058487 9.132467 13.103611 C 9.316248 13.148739 9.648466 13.209328 9.871522 13.23811 C 10.094577 13.266891 10.544795 13.314964 10.871949 13.344879 C 11.149337 13.370251 11.556645 13.400326 11.861978 13.418365 C 11.878584 13.419983 11.894557 13.421627 11.911201 13.423222 C 12.714733 13.482487 13.590266 13.523182 14.327341 13.529293 C 15.730063 13.540936 17.327423 13.720428 17.877022 13.92794 C 18.213066 14.054821 18.567986 14.2234 18.835852 14.377197 C 18.946268 14.43512 19.037964 14.490685 19.107624 14.541508 C 19.188583 14.628101 19.265411 14.725567 19.287188 14.773762 C 19.306904 14.81741 19.347305 14.884357 19.387022 14.940845 Z M 11.529888 12.409618 C 11.439959 12.412361 11.365989 12.392551 11.31566 12.354156 C 11.294974 12.30978 11.279347 12.270477 11.274755 12.246002 C 11.265571 12.197048 11.265672 12.116966 11.274755 12.06852 C 11.275734 12.063293 11.279584 12.055511 11.281688 12.049107 C 11.408718 11.820427 11.861656 11.490864 12.398589 11.253201 C 12.844261 11.055935 13.7054 10.756531 14.584555 10.485722 C 14.732132 10.449711 14.883856 10.413486 15.008852 10.384499 C 15.306259 10.315548 15.768644 10.203751 16.036318 10.136299 C 16.303984 10.068855 16.69911 9.953247 16.914726 9.879086 C 17.130348 9.804913 17.48995 9.662594 17.713404 9.562943 C 17.936861 9.463291 18.392818 9.231239 18.727003 9.047131 C 19.06119 8.863022 19.523283 8.615097 19.753777 8.496651 C 19.984262 8.378216 20.27249 8.215569 20.394382 8.135445 C 20.516279 8.055309 20.714684 7.897514 20.834625 7.784637 C 20.954561 7.671764 21.124451 7.484131 21.212473 7.367271 C 21.300491 7.250431 21.427097 7.053646 21.493952 6.930492 C 21.497744 6.923508 21.503059 6.913208 21.507124 6.905537 C 21.935802 6.335777 21.951777 6.375332 21.810095 6.996357 C 21.719389 7.39394 21.476042 8.035519 21.269323 8.421776 C 21.062605 8.808033 20.265877 9.476692 19.499336 9.907513 C 18.828615 10.284477 17.296902 10.834305 15.889339 11.214375 C 15.888411 11.214626 15.887494 11.214817 15.886566 11.215069 C 15.81994 11.227497 15.751897 11.24028 15.690363 11.251122 C 15.306802 11.318684 14.722727 11.428917 14.392511 11.495853 C 14.062283 11.562805 13.624202 11.659859 13.419123 11.711472 C 13.214035 11.763084 12.928439 11.849575 12.784062 11.903515 C 12.639688 11.957455 12.436125 12.043629 12.332033 12.095558 C 12.242681 12.140129 12.111708 12.215271 12.014503 12.276508 C 11.920124 12.306713 11.838495 12.33358 11.788488 12.352768 C 11.695011 12.388641 11.606934 12.407272 11.529888 12.409618 Z M 10.372083 9.290478 C 10.333501 9.290478 10.256935 9.227726 10.159933 9.124084 C 10.08114 9.051556 9.995193 8.961143 9.911734 8.862019 C 9.830429 8.734497 9.739282 8.589176 9.677399 8.484173 C 9.595895 8.345913 9.474719 8.116806 9.407706 7.975292 C 9.406555 7.972862 9.404713 7.969448 9.403546 7.966972 C 9.403048 7.965626 9.402658 7.964161 9.40216 7.962814 C 9.210031 7.441875 9.129648 6.766197 9.181691 6.047928 C 9.274832 4.762436 9.484719 4.392273 10.513515 3.701118 C 11.100143 3.307014 11.874639 2.90556 12.361845 2.734661 C 12.362776 2.734337 12.363688 2.733601 12.364617 2.733276 C 12.448661 2.708385 12.531337 2.685097 12.602419 2.666718 C 12.627527 2.660229 12.641303 2.657127 12.663428 2.651466 C 12.663902 2.651348 12.664343 2.651585 12.664815 2.651466 C 12.778232 2.630058 12.90571 2.614693 13.040583 2.605709 C 13.105239 2.591042 13.165631 2.579899 13.223613 2.570351 C 13.300339 2.569019 13.388672 2.568272 13.508557 2.568272 C 13.583423 2.568272 13.636992 2.569035 13.695054 2.569656 C 13.780751 2.585213 13.872517 2.607662 13.968213 2.636906 C 13.968213 2.636906 13.968906 2.636906 13.968906 2.636906 C 14.076773 2.651958 14.178935 2.671295 14.271184 2.69445 C 14.764231 2.818199 15.483042 3.234501 15.868541 3.620003 C 16.148184 3.899643 16.389978 4.344463 16.502214 4.746609 C 16.544796 4.850109 16.569464 4.943104 16.569464 5.019073 C 16.569464 5.042229 16.567928 5.066349 16.565996 5.090485 C 16.56805 5.118973 16.569464 5.146618 16.569464 5.173679 C 16.569464 5.64843 16.41188 5.943672 15.986401 6.183815 C 15.871228 6.240631 15.719494 6.309669 15.582902 6.368229 C 15.54046 6.38435 15.496881 6.400131 15.451176 6.416069 C 14.851008 6.625282 13.96261 6.779308 13.448241 6.765491 C 13.447797 6.76548 13.447297 6.765499 13.446855 6.765491 C 13.357406 6.760628 13.276064 6.753967 13.224306 6.746769 C 13.120215 6.732292 12.949858 6.700909 12.845766 6.676746 C 12.836533 6.674606 12.829551 6.672016 12.820807 6.669815 C 12.85628 6.63974 12.982565 6.600502 13.197268 6.5471 C 13.383168 6.500866 13.65277 6.406746 13.941868 6.291969 C 13.966415 6.286003 13.992357 6.28017 14.013278 6.274635 C 14.149822 6.238514 14.381011 6.164196 14.527011 6.109631 C 14.673002 6.055084 14.88989 5.961922 15.008852 5.903027 C 15.127815 5.844135 15.286003 5.756721 15.360353 5.70821 C 15.434706 5.659718 15.555318 5.560005 15.627966 5.487049 C 15.707304 5.407364 15.798353 5.273319 15.856754 5.151493 C 15.934676 4.988926 15.95413 4.916176 15.954509 4.786125 C 15.954823 4.679424 15.937186 4.58688 15.902512 4.515739 C 15.873514 4.45623 15.777862 4.337383 15.68967 4.251595 C 15.58577 4.150547 15.451975 4.058064 15.309743 3.988144 C 15.189008 3.928783 15.00479 3.858784 14.900698 3.832844 C 14.757923 3.797268 14.598495 3.785698 14.251772 3.785698 C 13.92064 3.785698 13.720643 3.799618 13.535596 3.834923 C 13.394326 3.861858 13.154524 3.924572 13.003144 3.974968 C 12.851759 4.025352 12.593448 4.12693 12.429094 4.200291 C 12.264741 4.273663 11.999218 4.409515 11.839099 4.502567 C 11.67898 4.595627 11.451388 4.739826 11.332992 4.822872 C 11.214594 4.90591 11.026459 5.047215 10.914934 5.136936 C 10.803417 5.226673 10.640022 5.367104 10.551646 5.448917 C 10.463267 5.530727 10.350369 5.658798 10.301366 5.73317 C 10.252364 5.80756 10.17462 5.964077 10.128042 6.081207 C 10.081457 6.198341 10.036447 6.336121 10.028207 6.386948 C 10.014796 6.46957 10.02572 6.491554 10.133588 6.59494 C 10.227573 6.685036 10.319673 6.734577 10.550953 6.820953 C 10.714218 6.881927 10.978193 6.970043 11.137483 7.016464 C 11.283747 7.05909 11.513478 7.117905 11.678947 7.156509 C 11.693192 7.160549 11.706903 7.165043 11.721238 7.168987 C 11.721732 7.169125 11.722131 7.169548 11.722625 7.169682 C 11.814248 7.188778 11.908698 7.207436 12.004104 7.225147 C 12.038003 7.231571 12.067667 7.236282 12.101858 7.242477 C 12.158463 7.252548 12.215198 7.262203 12.272409 7.271595 C 12.303754 7.276768 12.341796 7.284031 12.369471 7.288235 C 12.378111 7.289551 12.390707 7.291046 12.399976 7.292397 C 12.404152 7.293037 12.408278 7.293835 12.412456 7.294476 C 12.490845 7.306446 12.569314 7.317413 12.647483 7.327755 C 12.688479 7.333176 12.73135 7.337074 12.773663 7.341618 C 12.791264 7.342533 12.809828 7.342907 12.82774 7.3437 C 12.93467 7.354782 13.041068 7.365356 13.130017 7.372124 C 13.37642 7.390881 13.732957 7.39661 13.995252 7.386684 C 14.240616 7.377415 14.593489 7.352486 14.779371 7.330528 C 14.965246 7.308552 15.287362 7.258778 15.495546 7.220291 C 15.703732 7.181816 16.038008 7.108654 16.23876 7.05806 C 16.439512 7.007462 16.789608 6.910728 17.015947 6.84314 C 17.242285 6.775562 17.600899 6.658268 17.813238 6.582458 C 18.025572 6.506664 18.345423 6.38382 18.523867 6.309299 C 18.702312 6.234787 19.006519 6.09589 19.199833 6.000092 C 19.243679 5.978359 19.297987 5.949486 19.348198 5.923828 C 19.349932 5.92313 19.352011 5.922447 19.353745 5.921749 C 19.509754 5.84882 19.649546 5.778458 19.764175 5.713757 C 21.006561 5.012508 21.006451 5.01265 20.047733 5.877377 C 19.520439 6.352978 18.196768 7.075665 17.106075 7.483746 C 16.015383 7.891827 14.319677 8.225574 13.338007 8.225574 C 12.356335 8.225574 11.222634 8.048729 10.818565 7.832474 C 10.728456 7.784248 10.650552 7.743946 10.582151 7.711147 C 10.531332 7.698807 10.48723 7.690758 10.448345 7.686188 C 10.416991 7.670517 10.383947 7.654625 10.35683 7.64043 C 10.144654 7.52935 10.031153 7.483578 10.012955 7.50177 C 9.997362 7.51738 9.992134 7.596962 10.000475 7.688961 C 10.008857 7.781429 10.054961 7.945068 10.109323 8.075821 C 10.161141 8.200462 10.249127 8.404594 10.304832 8.529236 C 10.341293 8.610821 10.378999 8.707394 10.40744 8.787144 C 10.458982 9.083347 10.463186 9.290478 10.40744 9.290478 C 10.401419 9.290478 10.394423 9.289364 10.386642 9.28701 C 10.382085 9.289433 10.377363 9.290478 10.372083 9.290478 Z"/>
</svg>
